<?xml version="1.0" standalone="no"?>
<!DOCTYPE svg PUBLIC "-//W3C//DTD SVG 1.1//EN" "http://www.w3.org/Graphics/SVG/1.1/DTD/svg11.dtd">
<svg xmlns="http://www.w3.org/2000/svg">
<metadata>Copyright (C) 2014 by original authors @ fontello.com</metadata>
<defs>
<font id="fontello" horiz-adv-x="1000" >
<font-face font-family="fontello" font-weight="400" font-stretch="normal" units-per-em="1000" ascent="850" descent="-150" />
<missing-glyph horiz-adv-x="1000" />
<glyph glyph-name="alarm_clock_snooze" unicode="&#xe803;" d="m503 522c-10 0-18-8-18-17v-209l-106-78c-8-5-10-16-4-24 3-5 9-7 14-7 4 0 7 1 10 3l114 83c4 3 7 9 7 14v218c0 9-8 17-17 17z m331-235c0 183-149 331-331 331s-331-148-331-331c0-104 49-198 125-258l-68-115c-5-9-2-20 7-24 2-2 6-3 9-3 6 0 11 3 15 9l65 112c52-33 112-52 178-52 65 0 126 19 177 52l66-112c3-6 9-9 15-9 3 0 6 1 9 3 8 4 11 15 6 24l-67 115c76 60 125 154 125 258z m-331-296c-164 0-296 133-296 296s133 296 296 296 295-133 295-296-132-296-295-296z m-308 561c3 0 6 1 8 2l209 120c4 3 7 7 8 11 1 5 0 9-2 13-24 43-70 69-119 69-24 0-48-6-69-18-66-38-89-123-51-188 4-6 10-9 16-9z m52 166c16 9 34 14 52 14 30 0 59-14 79-37l-176-101c-17 46 2 99 45 124z m347-44l209-120c2-1 5-2 8-2 6 0 12 3 16 9 18 31 23 69 13 104-9 36-32 65-64 84-21 12-45 18-69 18-49 0-95-26-119-69-2-4-3-8-2-13 1-4 4-8 8-11z m113 58c18 0 36-5 52-14 23-13 40-35 47-62 6-21 5-42-2-62l-176 101c20 23 49 37 79 37z" horiz-adv-x="1000" />
<glyph glyph-name="envelope" unicode="&#xe8ae;" d="m0-29l324 342 176-100 176 100 324-342-1000 0z m0 114l0 414 254-147z m0 503l0 141 1000 0 0-141-500-285z m746-236l254 147 0-414z" horiz-adv-x="1000" />
<glyph glyph-name="alt_book_reading_read_manual" unicode="&#xe808;" d="m828 629c0 2-1 3-1 5-1 1-1 1-2 2-1 2-2 3-3 4 0 0 0 1-1 1 0 0-1 0-1 1-1 1-3 1-4 2-1 0-2 0-3 0 0 1-1 1-1 1-63 6-105 23-123 50-15 24-6 49-6 50 2 6 1 13-4 18-4 5-11 7-17 6l-449-122c-2 0-5-2-7-3-7-3-12-9-12-17v-597c0 0 0 0 0 0 0-5 2-126 165-139 1 0 1 0 2 0 0 0 0 0 0 0 1 0 1 0 1 0 1 0 3 0 5 1l448 121c8 2 13 9 13 17v597c0 1 0 1 0 2z m-467-105c-32 3-55 9-74 18l393 111c14-12 31-21 52-29l-371-100z m295 159l-405-114c-17 19-21 38-21 46l415 112c0-13 2-28 11-44z m-427-653c0 0 0 0 0 0 0 0 0 0 0 0v510c1 0 1-1 2-1 1-2 3-4 4-5 23-20 57-37 109-44v-561c-114 17-115 97-115 101z m563 14l-412-112v560l412 112v-560z" horiz-adv-x="1000" />
<glyph glyph-name="alt_box_shipping_package_delivery" unicode="&#xe80a;" d="m952 526c0 4-2 8-5 11l-126 214c-3 5-9 8-16 8h-597c-6 0-12-3-15-8l-128-216c-1-1-1-1-1-2 0 0 0-1-1-1 0-2-1-4-1-6 0 0 0 0 0 0v-597c0-10 8-18 18-18h854c9 0 17 8 17 18v595c0 0 1 1 1 2z m-514 17v12l30 154 82 0 30-154v-12-233h-142c0 0 0 233 0 233z m464 0h-286v14c0 1 0 2 0 3l-32 164h211l107-181z m-684 181h216l-32-164c0-1 0-2 0-3v-14h-291l107 181z m-120-777v561h304v-216c0-10 8-18 18-18h178c10 0 18 8 18 18v216h300v-561l-818 0 0 0z m120 255h74c9 0 17 8 17 18s-8 18-17 18h-74c-10 0-18-8-18-18s8-18 18-18z m217-42h-217c-10 0-18-8-18-18s8-18 18-18h217c10 0 18 8 18 18s-8 18-18 18z m0-78h-217c-10 0-18-8-18-18s8-17 18-17h217c10 0 18 8 18 17s-8 18-18 18z" horiz-adv-x="1000" />
<glyph glyph-name="alt_bright_bulb_idea_lamp_light" unicode="&#xe80b;" d="m712 438l-412-112c-8-3-14-11-13-20 1-9 9-15 18-15l0 0h0c6 0 123-3 140-136h-38c-8 0-16-6-17-14-21-105 16-167 62-185l9-56c2-8 9-15 18-15h64c9 0 16 7 18 15l9 56c46 18 83 80 62 185-1 8-9 14-17 14h-37c16 111 115 113 119 113 0 0 0 0 0 0 10 0 18 8 18 18 0 10-8 18-18 18h0c-2 0-138-3-155-149h-61c-9 92-60 135-104 154l345 95c9 2 15 12 12 22-2 9-12 15-22 12z m-162-451c-7-2-12-7-13-15l-9-51h-34l-9 51c-1 8-6 13-13 15-24 5-64 40-50 133h178c14-93-26-128-50-133z m-245 445c1 0 3 1 5 1l412 112c9 3 15 13 12 22-2 10-12 15-22 13l-412-113c-9-2-15-12-12-22 2-7 9-13 17-13z m0 142c2 0 3 0 5 1l268 78c3 1 31 12 45 39 8 18 9 38 1 61-3 9-13 14-22 11-10-4-15-14-11-23 13-38-18-52-24-54l-267-78c-10-3-15-13-12-22 2-8 9-13 17-13z" horiz-adv-x="1000" />
<glyph glyph-name="alt_bubble_comment_chat_message" unicode="&#xe80c;" d="m644 763h-280c-163 0-295-144-295-320 0-151 95-279 228-313v-202c0-7 4-14 11-16 2-1 5-2 7-2 4 0 9 2 12 4l235 208h82c162 0 295 144 295 321s-133 320-295 320z m0-605h-88c-5 0-9-2-12-5l-211-186v178c0 8-6 16-15 17-123 24-213 142-213 281 0 157 116 285 259 285h280c143 0 259-128 259-285s-116-285-259-285z m67 406h-401c-10 0-18-8-18-18s8-18 18-18h401c10 0 18 8 18 18s-8 18-18 18z m0-118h-401c-10 0-18-8-18-18s8-18 18-18h401c10 0 18 8 18 18s-8 18-18 18z m-205-118h-196c-10 0-18-8-18-18s8-18 18-18h196c10 0 18 8 18 18s-8 18-18 18z" horiz-adv-x="1000" />
<glyph glyph-name="alt_computer_desktop_screen" unicode="&#xe80f;" d="m656 31c-2 9-11 16-21 14-10-1-16-10-15-20l17-101-266 0 17 101c1 10-5 19-15 20-10 2-19-5-21-14l-17-108c0-1 0-2 0-3 0-18 16-32 35-32h268c19 0 35 14 35 32 0 1 0 2 0 3l-17 108z m213 732h-730c-43 0-78-35-78-78v-507c0-44 35-79 78-79h730c43 0 78 35 78 79v507c0 43-35 78-78 78z m-730-35h730c23 0 43-20 43-43v-441h-816v441c0 23 20 43 43 43z m730-593h-730c-23 0-43 19-43 43v30h816v-30c0-24-20-43-43-43z" horiz-adv-x="1000" />
<glyph glyph-name="alt_database_drives_raid_db_storage_nas_network" unicode="&#xe810;" d="m783 323c-27 0-48-22-48-49 0-26 21-48 48-48 27 0 48 22 48 48 0 27-21 49-48 49z m0-61c-7 0-13 5-13 12 0 7 6 13 13 13 7 0 13-6 13-13 0-7-6-12-13-12z m-677 219h808c10 0 18 8 18 18v228c0 10-8 18-18 18h-808c-10 0-18-8-18-18v-228c0-10 8-18 18-18z m18 228h772v-192h-772v192z m659-49c-27 0-48-22-48-49s21-48 48-48c27 0 48 22 48 48s-21 49-48 49z m0-61c-7 0-13 5-13 12s6 13 13 13c7 0 13-6 13-13s-6-12-13-12z m-654-617h-45c-10 0-18-8-18-18s8-18 18-18h45c10 0 18 8 18 18s-8 18-18 18z m151 0h-63c-10 0-18-8-18-18s8-18 18-18h63c10 0 18 8 18 18s-8 18-18 18z m133 0h-45c-10 0-18-8-18-18s8-18 18-18h45c10 0 18 8 18 18s-8 18-18 18z m230 0h-44c-10 0-18-8-18-18s8-18 18-18h44c10 0 18 8 18 18s-8 18-18 18z m152 0h-63c-10 0-18-8-18-18s8-18 18-18h63c10 0 18 8 18 18s-8 18-18 18z m133 0h-44c-10 0-18-8-18-18s8-18 18-18h44c10 0 18 8 18 18s-8 18-18 18z m-403 29l0 131c0 0 0 1 0 2h389c10 0 18 8 18 18v228c0 10-8 18-18 18h-808c-10 0-18-8-18-18v-228c0-10 8-18 18-18h384c0-1 0-2 0-2l-1-131c-19-7-32-26-32-47 0-28 22-51 50-51 28 0 51 23 51 51 0 21-14 40-33 47z m-401 361h772v-192h-772v192z m383-423c-8 0-14 6-14 15 0 4 1 7 4 10 3 3 6 4 10 4 9 0 15-6 15-14s-6-15-15-15z" horiz-adv-x="1000" />
<glyph glyph-name="alt_download_computer_files" unicode="&#xe820;" d="m493 57c1-2 3-3 5-4 3-1 5-2 7-2s5 1 7 2c2 1 4 2 6 4l166 166c7 7 7 18 0 25s-18 7-25 0l-136-136v629c0 10-8 18-18 18s-18-8-18-18v-629l-135 136c-7 7-18 7-25 0s-7-18 0-25l166-166z m417 113c-10 0-18-8-18-18v-232h-773v232c0 10-8 18-18 18s-18-8-18-18v-250c0-10 8-18 18-18h809c10 0 18 8 18 18v250c0 10-8 18-18 18z" horiz-adv-x="1000" />
<glyph glyph-name="alt_file_document_cv_curriculum_vitae_profile_id" unicode="&#xe81f;" d="m446 318h-238c-10 0-18-8-18-17s8-18 18-18h238c10 0 18 8 18 18s-8 17-18 17z m0-110h-238c-10 0-18-8-18-18s8-18 18-18h238c10 0 18 8 18 18s-8 18-18 18z m0 221h-238c-10 0-18-8-18-18s8-18 18-18h238c10 0 18 8 18 18s-8 18-18 18z m268-397c-10 0-18-8-18-18v-79c0-6-5-11-12-11h-563c-7 0-12 5-12 11v795c0 6 5 11 12 11h421l0-134c0-10 8-18 18-18h136v-52c0-10 8-18 18-18s18 8 18 18v70c0 13-5 25-14 34l-125 122c-9 9-20 14-33 14 0 0 0 0 0 0h-439c-26 0-48-21-48-47v-795c0-26 22-47 48-47h563c27 0 48 21 48 47v79c0 10-8 18-18 18z m-31 593h-105l0 104 105-104z m249-458c-104 40-126 58-130 62v9c12 14 21 32 28 51 10 10 16 23 16 37 0 10-3 19-8 27v39c0 60-38 96-103 96-63 0-102-37-102-96v-39c-5-8-8-17-8-27 0-14 6-27 16-37 6-19 16-37 28-51v-8c-6-6-29-24-130-63-12-5-20-17-20-30v-50c0-18 14-32 32-32h369c18 0 32 14 32 32v50c0 13-8 25-20 30z m-16-77h-361v45c128 50 144 70 149 85 0 1 1 3 1 5v20c0 5-2 9-5 13-12 11-21 27-26 47-1 4-4 7-7 9-4 3-6 8-6 12 0 5 2 8 3 10 3 3 4 7 4 11v45c0 40 23 60 67 60 46 0 67-20 67-60v-45c0-4 2-8 4-11 2-2 4-5 4-10 0-4-2-9-6-12-4-2-6-5-7-9-6-20-14-36-26-47-3-4-5-8-5-13v-20c0-2 1-4 1-5 5-15 21-35 149-85v-45h0z" horiz-adv-x="1000" />
<glyph glyph-name="alt_iphone_mobile_chat_message_sms" unicode="&#xe81d;" d="m348-58c25 0 45 20 45 45s-20 45-45 45c-25 0-45-21-45-45 0-25 20-45 45-45z m0 54c5 0 9-4 9-9 0-5-4-10-9-10-5 0-9 5-9 10 0 5 4 9 9 9z m388 727h-146c-16 26-45 43-77 43h-329c-52 0-93-42-93-93v-28-593-78c0-51 42-92 93-92h329c51 0 92 41 92 92v78 166l79 69h52c110 0 200 98 200 218s-90 218-200 218z m-609-50c0 32 25 57 57 57h329c10 0 20-3 28-8-58-3-109-32-144-77h-270v28z m443-699c0-31-26-57-57-57h-329c-32 0-57 26-57 57v78h443c0 0 0-78 0-78z m0 113h-443v522h248c-16-31-25-66-25-104 0-100 62-186 151-211v-129c0-7 4-13 10-16 2-1 5-1 7-1 5 0 9 1 12 4l40 35v-100h0z m166 236h-59c-4 0-8-1-12-4l-129-114v103c0 9-6 16-14 18-79 15-136 91-136 179 0 100 74 182 165 182h185c90 0 164-82 164-182s-74-182-164-182z m-233 192l-2 1c-9 3-19 6-19 11 0 4 6 6 11 6 6 0 14-2 23-7 2-1 4-2 7-2 8 0 15 7 15 15 0 6-3 10-9 13-11 6-24 10-36 10-25 0-42-16-42-38 0-26 24-32 36-36l3-1c9-3 18-5 18-10 0-7-8-7-12-7-9 0-19 3-29 9-1 1-4 2-7 2-8 0-15-6-15-14 0-5 3-10 7-12 13-9 28-14 43-14 27 0 45 15 45 39 0 24-25 32-37 35z m184 47c-15 0-26-5-36-16-7 10-19 16-33 16-13 0-23-5-29-12-3 6-9 11-16 11-9 0-17-7-17-17v-85c0-10 8-17 17-17 9 0 17 7 17 17v49c0 14 7 23 18 23 15 0 18-12 18-22v-50c0-10 7-17 17-17 9 0 16 7 16 17v49c0 14 7 23 19 23 11 0 17-8 17-22v-50c0-10 8-17 17-17 9 0 17 7 17 17v57c0 29-16 46-42 46z m112-47l-2 1c-9 3-19 6-19 11 0 4 5 6 11 6 6 0 14-2 23-7 2-1 4-2 7-2 8 0 14 7 14 15 0 6-3 10-8 13-11 6-24 10-36 10-25 0-43-16-43-38 0-26 24-32 37-36l3-1c9-3 18-5 18-10 0-7-8-7-12-7-9 0-19 3-29 9-1 1-4 2-7 2-8 0-15-6-15-14 0-5 3-10 7-12 12-9 28-14 43-14 27 0 45 15 45 39 0 24-25 32-37 35z" horiz-adv-x="1000" />
<glyph glyph-name="alt_location_pin_map" unicode="&#xe81c;" d="m805-90l-87 219c-3 7-9 11-17 11h-52c-10 0-18-8-18-18s8-18 18-18h40l73-183h-519l73 183h40c9 0 17 8 17 18s-8 18-17 18h-52c-8 0-14-4-17-11l-87-219c-2-6-1-12 2-17 3-5 9-8 15-8h571c6 0 12 3 15 8 3 5 4 11 2 17z m-200 613c0 56-46 103-103 103-56 0-102-47-102-103 0-57 46-103 102-103 57 0 103 46 103 103z m-103-67c-37 0-67 30-67 67 0 37 30 67 67 67 37 0 67-30 67-67 0-37-30-67-67-67z m0-455c6 0 12 3 15 8 10 15 241 367 241 502 0 141-115 255-256 255s-255-114-255-255c0-135 231-487 240-502 4-5 9-8 15-8z m0 729c121 0 220-98 220-219 0-106-168-378-220-459-51 81-219 353-219 459 0 121 98 219 219 219z" horiz-adv-x="1000" />
<glyph glyph-name="alt_map_folder" unicode="&#xe81b;" d="m937 470c-4 4-8 7-14 7h-47v67c0 26-21 47-47 47h-486c-33 75-51 75-59 75h-111c-26 0-47-21-47-47v-142h-47c-6 0-11-3-14-7-3-3-5-9-4-14l65-461c1-9 9-16 17-16h715c9 0 17 7 18 16l65 461c1 5-1 11-4 14z m-776 149c0 6 5 11 12 11h107c8-7 23-36 35-64 2-6 9-11 16-11h498c6 0 12-5 12-11v-67h-680v142z m682-604h-684l-60 426h804l-60-426z m-513 287h309c10 0 18 8 18 18s-8 17-18 17h-309c-10 0-18-8-18-17s8-18 18-18z" horiz-adv-x="1000" />
<glyph glyph-name="alt_movie_video_play" unicode="&#xe819;" d="m930 769h-843c-10 0-18-8-18-17v-845c0-10 8-18 18-18h843c10 0 18 8 18 18v845c0 9-8 17-18 17z m-825-189h807v-490h-807v490z m807 154v-119h-807v119c0 0 807 0 807 0z m-807-809v130h807v-130h-807z m83 722h25c10 0 18 8 18 18v25c0 10-8 18-18 18h-25c-10 0-18-8-18-18v-25c0-10 8-18 18-18z m153 0h26c9 0 17 8 17 18v25c0 10-8 18-17 18h-26c-9 0-17-8-17-18v-25c0-10 8-18 17-18z m154 0h25c10 0 18 8 18 18v25c0 10-8 18-18 18h-25c-10 0-18-8-18-18v-25c0-10 8-18 18-18z m154 0h25c10 0 18 8 18 18v25c0 10-8 18-18 18h-25c-10 0-18-8-18-18v-25c0-10 8-18 18-18z m154 0h25c10 0 18 8 18 18v25c0 10-8 18-18 18h-25c-10 0-18-8-18-18v-25c0-10 8-18 18-18z m-590-628h-25c-10 0-18-8-18-18v-25c0-10 8-18 18-18h25c10 0 18 8 18 18v25c0 10-8 18-18 18z m154 0h-26c-9 0-17-8-17-18v-25c0-10 8-18 17-18h26c9 0 17 8 17 18v25c0 10-8 18-17 18z m153 0h-25c-10 0-18-8-18-18v-25c0-10 8-18 18-18h25c10 0 18 8 18 18v25c0 10-8 18-18 18z m154 0h-25c-10 0-18-8-18-18v-25c0-10 8-18 18-18h25c10 0 18 8 18 18v25c0 10-8 18-18 18z m154 0h-25c-10 0-18-8-18-18v-25c0-10 8-18 18-18h25c10 0 18 8 18 18v25c0 10-8 18-18 18z m-184 347l-176 137c-5 4-13 8-22 8-14 0-30-9-33-26-1-5-1-13-1-13l0-277c0-6 2-12 5-16 6-10 17-16 29-16h0 0c11 0 19 6 26 11l2 1c0 0 104 83 169 134 3 2 12 12 13 27 0 11-4 22-12 30z m-24-30c-65-51-169-133-169-133-1-1-2-1-3-2l0 271c0 0 0 1 0 1l170-133c1-1 2-2 2-3 0-1-1-2 0-1z" horiz-adv-x="1000" />
<glyph glyph-name="alt_music_note_playing" unicode="&#xe817;" d="m768 482c-12 153-222 280-231 285 0 0 0 0-1 0-1 1-2 1-3 2-1 0-2 0-4 0 0 0 0 1-1 1 0 0-1-1-2-1-1 0-2 0-3-1-1 0-2 0-3-1-1-1-2-1-3-2-1-1-2-2-3-3 0 0-1-1-1-1 0 0 0-1 0-1-1-1-1-2-2-4 0-1 0-2 0-3 0-1 0-1 0-1v-643c-22 16-52 26-86 26-18 0-36-3-54-8-78-24-127-91-109-151 13-45 60-74 120-74 18 0 36 2 54 8 37 11 69 32 90 59 21 28 28 60 20 89v661c56-39 178-135 186-239 4-51-22-99-75-142-8-6-9-17-3-25 4-4 9-7 14-7 4 0 8 2 12 4 63 51 92 109 88 172z m-271-491c-16-21-41-38-71-47-15-4-30-7-44-7-43 0-77 19-86 49-12 41 26 89 85 107 15 4 30 6 44 6 44 0 77-19 86-48 6-19 1-40-14-60z" horiz-adv-x="1000" />
<glyph glyph-name="alt_phone_book_number_contact" unicode="&#xe816;" d="m873 767h-733c-10 0-18-8-18-18v-847c0-10 8-18 18-18h613c10 0 18 8 18 18v618h102c9 0 17 8 17 18v211c0 10-8 18-17 18z m-18-211h-102c-10 0-18-8-18-18v-618h-577v812h697c0 0 0-176 0-176z m-594-511h370c10 0 18 8 18 18s-8 18-18 18h-370c-10 0-18-8-18-18s8-18 18-18z m0 127h370c10 0 18 8 18 18s-8 18-18 18h-370c-10 0-18-8-18-18s8-18 18-18z m0 127h370c10 0 18 8 18 18s-8 18-18 18h-370c-10 0-18-8-18-18s8-18 18-18z m11 126c6 0 11 1 14 5 2 4 6 11 10 21l10 27h85l10-26c1-3 3-7 5-11 2-5 3-8 5-10 2-2 4-3 6-5 2-1 5-1 9-1 5 0 10 2 14 6 4 4 6 8 6 13 0 5-2 12-6 23l-55 135c-2 7-5 12-6 16-2 4-4 8-6 12-3 3-6 6-10 8-4 2-9 4-15 4-6 0-11-2-15-4-3-2-7-5-9-9-3-3-5-8-7-13s-4-10-5-14l-54-137c-2-5-4-9-5-12-1-3-1-6-1-9 0-5 2-10 6-14 4-3 9-5 14-5z m76 172l32-87h-63l31 87z m525-155h-51c-10 0-18-8-18-17s8-18 18-18h33v-162h-33c-10 0-18-8-18-18s8-18 18-18h51c9 0 17 8 17 18v198c0 9-8 17-17 17z m0-311h-51c-10 0-18-8-18-17s8-18 18-18h33v-176h-33c-10 0-18-8-18-18s8-18 18-18h51c9 0 17 8 17 18v212c0 9-8 17-17 17z" horiz-adv-x="1000" />
<glyph glyph-name="alt_phone_telephone_call_contact" unicode="&#xe815;" d="m628 398v52c0 9-8 17-18 17s-18-8-18-17v-41h-167v41c0 9-8 17-18 17s-17-8-17-17v-51l-246-264c-3-3-4-8-4-12v-158c0-10 8-18 17-18h56v-44c0-10 8-18 18-18s18 8 18 18v44h519v-44c0-10 8-18 18-18s18 8 18 18v44h56c10 0 18 8 18 18v158c0 4-2 9-5 12l-245 263z m214-415h-667v133l240 258h187l240-258 0-133 0 0z m-475 184c0-78 63-142 142-142s141 64 141 142c0 78-63 142-141 142s-142-64-142-142z m248 0c0-58-48-106-106-106s-107 48-107 106 48 106 107 106 106-47 106-106z m-176 0c0-38 31-69 70-69s69 31 69 69-31 69-69 69-70-31-70-69z m103 0c0-18-15-33-33-33s-34 15-34 33c0 19 15 34 34 34s33-15 33-34z m372 410l0 3c-1 13-1 31-9 52 0 0 0 0 0 0-31 87-155 130-380 130l-16 0-17 0c-225 0-349-43-380-130-7-21-8-39-8-52l-1-3c0-1-1-62 0-65 0-17 15-31 33-31l223-1c18 0 33 13 33 31l0 16c1 14 1 34 1 42 9 8 50 20 109 20l7 0 6 0c61 0 102-13 109-19 0-9 1-42 1-54l0-5c1-18 15-31 33-31 0 0 0 0 1 0l222 1c18 0 33 13 34 31 0 3-1 64-1 65z m-256-79v17h0l0-17z m3 17l0 2c-1 13-1 53-1 56 0 3-1 6-2 8-15 43-130 44-143 44l-6 0-7 0c-13 0-128-1-143-44-1-2-2-5-2-8 0-3 0-28 0-46l0-12-219 1c0 13 1 56 1 59l0 4c1 11 1 26 7 41 25 70 141 106 346 106l17 0 16 0c205 0 322-36 347-106 0 0 0 0 0-1 5-15 6-29 6-40l0-4c0-3 1-46 1-59l-218-1z" horiz-adv-x="1000" />
<glyph glyph-name="alt_photo_image_album" unicode="&#xe814;" d="m916 523l-174 32-24 77c-7 21-30 33-51 27l-179-57-156 30c-22 4-43-11-47-33l-12-64-173-54c-21-7-33-29-26-50l127-406c5-17 21-28 38-28 4 0 8 1 12 2l268 84 304-57c3-1 5-1 8-1 19 0 35 14 39 33l78 418c4 22-11 43-32 47z m-237 102c2 0 4-1 4-3l19-60-139 26 116 37z m-439-592c0 0 0 0-1 0-1 0-3 1-4 3l-127 406c-1 2 1 4 3 5l154 48-58-313c-4-22 10-43 32-47l205-38-204-64z m591 28l-443 83 201 189 49-98c2-6 7-9 13-10 6-1 12 1 16 5l112 120 77-171-21-114c-1-3-3-4-4-4z m37 179l-68 150c-2 5-7 9-13 10-6 1-12-1-16-6l-113-120-47 97c-3 5-7 8-13 9-5 1-11 0-15-4l-239-224-99 18c-2 0-3 3-3 5l78 418c0 2 2 3 5 3 0 0 0 0 0 0l584-109c3 0 4-2 4-5l-45-242z m-422 253c-4 1-9 1-14 1-37 0-69-27-76-63-8-42 20-83 62-91 5 0 10-1 14-1 38 0 70 27 76 63 4 21 0 41-12 58s-29 29-50 33z m27-84c-4-22-25-38-48-33-23 4-38 26-34 48 4 20 21 34 41 34 3 0 5 0 8 0 11-2 20-9 27-18 6-9 8-20 6-31z" horiz-adv-x="1000" />
<glyph glyph-name="alt_ringer_sounds_volume_speakers" unicode="&#xe811;" d="m526 696c-12 0-25-5-39-14-41-26-138-108-214-174h-143c-23 0-41-18-41-40v-259c0-22 18-40 41-40h148c74-65 169-144 209-170 14-10 27-14 39-14 34 0 47 33 49 50 0 1 0 2 0 3v605c0 1 0 2 0 2-2 18-15 51-49 51z m13-657c0-4-4-18-13-18-2 0-9 1-20 8-41 26-149 119-210 171-3 3-7 4-12 4h-154c-3 0-5 2-5 5v259c0 3 2 5 5 5h150c4 0 9 1 12 4 107 93 183 155 214 175 11 7 18 8 20 8 9 0 13-15 13-18l0-603 0 0z m232 488c-7 6-18 6-25-1-7-7-6-19 1-25 45-42 70-99 70-161 0-61-25-118-70-160-7-7-8-18-1-25 3-4 8-6 13-6 4 0 9 2 12 5 52 49 81 115 81 186 0 72-29 138-81 187z m-84-84c-8 7-19 6-26-2-6-7-5-18 2-25 22-19 35-47 35-76 0-29-13-56-35-76-7-6-8-17-2-25 4-4 9-6 14-6 4 0 8 2 12 5 29 26 46 63 46 102 0 40-17 77-46 103z" horiz-adv-x="1000" />
<glyph glyph-name="alt_settings_eq_control_panel_preferences" unicode="&#xe821;" d="m840 781h-667c-58 0-105-47-105-105v-669c0-58 47-105 105-105h667c58 0 105 47 105 105v669c0 58-47 105-105 105z m70-774c0-38-31-69-70-69h-667c-38 0-69 31-69 69v669c0 38 31 69 69 69h667c39 0 70-31 70-69v-669z m-597 599v28c0 9-8 17-18 17s-17-8-17-17v-28c-43-8-76-46-76-92s33-83 76-91v-377c0-10 8-18 17-18s18 8 18 18v377c43 8 76 46 76 91s-33 84-76 92z m-18-149c-31 0-57 26-57 57s26 58 57 58 58-26 58-58-26-57-58-57z m233-171v348c0 9-8 17-18 17s-18-8-18-17v-348c-43-8-75-46-75-92s32-83 75-91v-57c0-10 8-18 18-18s18 8 18 18v57c43 8 75 46 75 91s-32 84-75 92z m-18-149c-32 0-58 26-58 57s26 58 58 58 58-26 58-58-26-57-58-57z m233 378v119c0 9-8 17-18 17s-18-8-18-17v-119c-43-9-76-47-76-92s33-83 76-91v-286c0-10 8-18 18-18s18 8 18 18v286c42 8 75 46 75 91s-33 83-75 92z m0-146c-6-2-12-4-18-4l0 0c-7 0-13 2-18 4-23 7-40 29-40 54s17 47 40 54c5 2 11 4 18 4l0 0c6 0 12-2 18-4 23-7 39-28 39-54s-16-47-39-54z" horiz-adv-x="1000" />
<glyph glyph-name="alt_settings_gear_preferences" unicode="&#xe822;" d="m363 297c-65 0-118-53-118-118s53-118 118-118 118 53 118 118-53 118-118 118z m0-201c-45 0-83 38-83 83 0 46 38 83 83 83 46 0 83-37 83-83s-37-83-83-83z m271 138l-62 8c-4 14-10 27-16 40l38 50c4 6 4 15 0 21-16 21-35 40-57 56-6 5-15 5-21 0l-50-38c-12 7-26 13-40 17l-8 62c-1 8-7 14-15 15-27 4-53 4-80 0-7-1-14-7-15-15l-8-62c-14-4-27-10-40-16l-49 37c-7 5-15 5-22 1-9-8-19-16-28-25l-4-4c-9-9-17-18-24-28-5-6-5-15 0-21l38-50c-7-12-13-26-17-40l-62-8c-7-1-14-7-15-15-1-12-2-24-2-36v-8c0-12 1-24 2-36 1-8 8-14 15-15l62-8c4-14 10-27 17-40l-38-49c-5-7-5-16 0-22 7-10 15-19 24-28l4-4c9-9 18-17 28-24 7-5 15-5 22 0l49 38c13-7 26-13 40-17l8-62c1-8 8-14 15-15 14-2 27-3 40-3 13 0 27 1 40 3 8 1 14 7 15 15l8 62c14 4 28 10 40 17l50-38c6-5 15-5 21 0 22 16 41 35 57 56 4 7 4 15 0 22l-38 49c6 13 12 26 16 40l62 8c8 1 14 7 15 15 2 14 3 27 3 40s-1 27-3 40c-1 8-7 14-15 15z m-18-77l-60-7c-7-1-13-7-15-14-4-18-12-36-22-52-4-6-3-14 1-20l37-48c-9-11-20-21-31-31l-47 37c-6 5-14 5-20 1-17-10-34-17-53-22-7-1-12-7-13-15l-8-59c-15-2-29-2-43 0l-8 59c-1 8-6 14-14 15-18 5-36 12-52 22-6 4-14 4-20-1l-48-37c-5 4-9 9-14 13l-4 4c-4 5-8 9-13 14l37 48c5 6 5 14 1 20-10 16-17 34-22 52-1 7-7 13-14 14l-60 8c-1 5-1 11-1 17v8c0 6 0 12 1 18l60 8c7 1 13 6 14 13 5 19 12 36 22 53 4 6 4 14-1 20l-37 47c4 5 9 10 13 14l4 4c5 5 9 9 14 13l48-37c6-4 14-5 20-1 16 10 34 18 52 22 7 2 13 8 14 15l8 60c14 1 28 1 43 0l8-60c1-7 6-13 13-15 19-4 36-12 53-22 6-4 14-3 20 1l47 37c11-9 22-20 31-31l-37-47c-4-6-5-14-1-21 10-16 17-33 22-52 2-7 8-12 15-13l60-8c0-7 0-15 0-22 0-7 0-14 0-22z m157 480c-10 5-21 7-31 7-34 0-64-21-77-52-8-20-8-43 0-63 9-21 25-37 45-45 10-4 21-6 32-6 33 0 64 20 76 51 9 21 9 43 0 64s-24 36-45 44z m13-94c-8-18-25-30-44-30-6 0-13 1-18 4-12 5-21 14-26 25s-5 25 0 37c7 18 24 29 44 29 6 0 12-1 18-3 11-5 21-14 26-26s4-25 0-36z m154-15l-36 20c0 9 0 18 0 26l36 21c7 4 10 12 8 20-5 19-13 37-23 54-4 7-12 11-20 9l-40-11c-6 6-12 12-18 18l10 40c2 8-1 16-8 20-9 5-18 9-27 13-8 4-18 7-27 9-8 2-16-1-20-8l-21-36c-9 0-17 0-26 0l-21 36c-4 7-12 10-20 8-8-2-17-5-26-9l-4-1c-8-4-16-8-24-13-7-4-10-12-8-20l11-40c-7-6-13-12-18-18l-41 10c-8 2-16-1-20-8-4-8-8-15-12-24l-2-5c-3-9-6-17-8-25-2-8 1-16 8-20l37-21c-1-9-1-17 0-26l-36-21c-7-4-11-12-9-20 3-8 6-17 9-26l2-4c3-8 8-16 12-24 4-7 12-10 20-8l40 11c6-7 12-13 19-18l-11-41c-2-8 2-16 8-20 9-5 18-9 27-13 9-3 18-6 28-9 1 0 3-1 4-1 7 0 13 4 16 9l20 37c9-1 18-1 26 0l21-36c4-7 12-11 20-9 19 6 38 13 55 23 6 4 10 12 8 20l-11 41c6 5 12 11 18 18l40-11c8-2 16 2 20 8 5 9 9 18 13 27 4 9 7 18 9 28 2 8-1 16-8 20z m-34-35c-1-3-3-7-4-10l-38 10c-7 2-15-1-19-7-8-10-17-20-28-28-6-4-9-11-7-19l11-38c-7-3-14-6-21-8l-20 34c-4 6-11 10-18 8-13-2-26-2-39 0-8 1-15-2-19-9l-19-34c-4 1-7 3-11 4-3 1-7 3-10 5l10 38c2 7-1 14-7 19-10 7-20 17-28 27-4 6-12 9-19 7l-38-10c-1 2-2 5-4 8l-1 4c-1 3-2 6-3 8l34 20c6 4 9 11 8 18-2 14-2 27 0 40 1 7-2 14-9 18l-34 20c1 2 2 5 3 7l2 6c1 2 2 5 4 7l38-10c7-1 14 1 19 7 7 11 17 20 27 28 6 4 9 12 7 19l-10 38c2 1 5 3 8 4l4 2c3 1 6 2 9 3l19-34c4-7 11-10 18-9 14 2 27 2 40 0 7-1 14 3 18 9l20 34c3-1 7-2 10-4 4-1 7-3 10-4l-10-38c-1-8 1-15 7-19 11-8 20-17 28-28 4-6 12-9 19-7l38 11c3-7 6-14 9-21l-34-20c-7-4-10-11-9-18 2-13 2-26 0-40-1-7 3-14 9-18l34-19c-1-4-2-7-4-11z" horiz-adv-x="1000" />
<glyph glyph-name="alt_settings_tools_configuration_service_preferences" unicode="&#xe823;" d="m927 553c-2 10-10 19-20 22-10 3-22 0-30-7l-95-96-82-17-68 68 17 81 96 96c8 8 10 19 7 29-3 11-11 18-22 21-16 3-33 4-49 4-67 0-130-26-177-73-68-68-58-182-48-237l-342-299c-28-28-44-65-44-104 0-40 16-77 44-105 27-28 65-43 104-43s77 16 106 45l297 341c26-5 52-8 77-8 69 0 124 19 160 56 59 59 85 143 69 226z m-94-201c-29-29-76-45-135-45-26 0-53 3-80 9-7 1-13-1-17-6l-303-348c-22-21-50-33-80-33-30 0-58 11-79 33-21 21-33 49-33 79s12 58 32 78l349 304c5 5 7 11 6 17-7 35-26 154 36 216 41 40 95 63 152 63 10 0 20-1 30-2l-91-91c-2-3-4-6-5-9l-20-96c-1-6 1-12 5-17l81-81c5-4 11-6 17-5l96 20c3 1 7 2 9 5l91 91c9-67-13-134-61-182z m-638-288l0 0c-13-13-13-33 0-46 13-13 33-13 46 0l0 0c13 13 13 33 0 46-13 12-33 12-46 0z" horiz-adv-x="1000" />
<glyph glyph-name="alt_shopping_cart_store_basket_purchase" unicode="&#xe824;" d="m936 646c-9 3-19-3-22-12l-12-44h-247c-10 0-18-8-18-18 0-10 8-18 18-18h238l-65-236c-1-6-7-11-13-11-1 0-2 0-2 0l-512-56-70 303h232c10 0 18 8 18 18s-8 18-18 18h-230l12 55c1 2 1 5 0 7-5 23-25 40-48 40h-111c-9 0-17-8-17-18s8-18 17-18h111c5 0 10-3 12-8l-16-68c-1-3-1-5-1-8 0 0 0-1 0-1 0-1 0-1 0-1 0-1 0-3 0-4 0 0 0 0 0 0l76-333-19-62c0-1-1-2-1-2-2-13 1-27 9-37 9-10 21-16 35-16h531c10 0 18 8 18 18s-8 18-18 18h-531c-3 0-5 1-7 3-1 1-2 4-2 6l17 55 516 56c23 0 42 16 47 37l86 315c2 10-3 20-13 22z m-614-575c-40 0-72-32-72-72s32-72 72-72c39 0 72 32 72 72s-33 72-72 72z m0-108c-20 0-37 16-37 36s17 36 37 36c20 0 36-16 36-36s-16-36-36-36z m426 108c-40 0-72-32-72-72s32-72 72-72c40 0 72 32 72 72s-32 72-72 72z m0-108c-20 0-36 16-36 36s16 36 36 36 36-16 36-36-16-36-36-36z m-289 525c-7 7-18 7-25 0s-7-18 0-25l112-112c2-2 4-3 6-4 2-1 4-2 7-2s4 1 7 2c2 1 4 2 5 4l113 112c7 7 7 18 0 25s-19 7-26 0l-81-82v370c0 10-8 18-18 18s-18-8-18-18v-370l-82 82z" horiz-adv-x="1000" />
<glyph glyph-name="alt_sign_path_directions_navigation" unicode="&#xe825;" d="m807 698h-285v51c0 10-8 18-18 18s-18-8-18-18v-51h-218c-5 0-10-3-14-7l-143-174c-5-6-5-16 1-22l142-170c4-4 9-7 14-7h539c10 0 18 8 18 18v344c0 10-8 18-18 18z m-17-344h-514l-128 152 128 156h514v-308h0z m-286-76c-10 0-18-8-18-18v-360c0-10 8-18 18-18s18 8 18 18v360c0 10-8 18-18 18z" horiz-adv-x="1000" />
<glyph glyph-name="alt_star_favorite" unicode="&#xe826;" d="m817 635c-82 81-191 127-307 127s-225-46-307-127c-82-82-127-191-127-307 0-116 45-225 127-307s191-127 307-127c0 0 0 0 0 0 116 0 225 45 307 127 82 82 127 191 127 307 0 116-45 225-127 307z m-25-589c-75-75-175-117-282-117h0c-106 0-206 42-282 117-75 75-116 175-116 282 0 106 41 206 116 281 76 75 176 117 282 117s207-42 282-117 116-175 116-281-41-207-116-282z m-39 386l-159 3-52 149c-5 13-18 22-32 22-14 0-27-9-31-22l-53-149-159-3c-14-1-27-10-31-23-4-14 0-29 12-37l126-95-46-151c-4-13 1-28 13-36 5-5 12-7 19-7 7 0 14 2 19 6l131 90 131-90c12-8 27-8 39 1 11 8 16 23 12 36l-46 151 127 95c11 8 16 23 11 37-4 13-17 22-31 23z m-139-134c-6-5-8-13-6-20l48-156-136 94c-6 4-14 4-20 0l-135-94 47 156c3 7 0 15-6 20l-131 98 165 4c7 0 14 4 16 12l54 154 54-154c3-8 9-12 17-12l165-4-132-98z" horiz-adv-x="1000" />
<glyph glyph-name="alt_switch_on_off" unicode="&#xe827;" d="m669 506c-90 0-164-73-164-163s74-164 164-164 163 74 163 164-73 163-163 163z m0-291c-71 0-128 58-128 128s57 128 128 128 128-58 128-128-58-128-128-128z m0 401h-328c-150 0-273-123-273-273s123-273 273-273h328c150 0 273 123 273 273s-123 273-273 273z m0-510h-328c-130 0-237 106-237 237s107 237 237 237h328c131 0 237-106 237-237s-106-237-237-237z" horiz-adv-x="1000" />
<glyph glyph-name="alt_thin-023_calendar_date" unicode="&#xe828;" d="m895 572h-200l-129 106c4 8 6 17 6 26 0 36-29 65-65 65s-65-29-65-65c0-9 2-18 6-26l-129-106h-200c-10 0-18-8-18-18v-653c0-10 8-18 18-18h776c10 0 18 8 18 18v653c0 10-8 18-18 18z m-388 161c16 0 29-13 29-29s-13-29-29-29c-16 0-29 13-29 29 0 16 13 29 29 29z m-36-82c10-7 23-11 36-11s26 4 36 11l96-79h-264l96 79z m406-732h-740v487h740v-487z m0 523h-740v94h740v-94z m-284-147h10c9 0 17 8 17 18v9c0 10-8 18-17 18h-10c-10 0-18-8-18-18v-9c0-10 8-18 18-18z m94 0h9c10 0 18 8 18 18v9c0 10-8 18-18 18h-9c-10 0-18-8-18-18v-9c0-10 8-18 18-18z m93 0h10c10 0 18 8 18 18v9c0 10-8 18-18 18h-10c-9 0-17-8-17-18v-9c0-10 8-18 17-18z m-562-105h10c10 0 18 8 18 18v10c0 9-8 17-18 17h-10c-10 0-18-8-18-17v-10c0-10 8-18 18-18z m94 0h10c9 0 17 8 17 18v10c0 9-8 17-17 17h-10c-10 0-18-8-18-17v-10c0-10 8-18 18-18z m94 0h9c10 0 18 8 18 18v10c0 9-8 17-18 17h-9c-10 0-18-8-18-17v-10c0-10 8-18 18-18z m93 0h10c10 0 18 8 18 18v10c0 9-8 17-18 17h-10c-9 0-17-8-17-17v-10c0-10 8-18 17-18z m94 0h10c9 0 17 8 17 18v10c0 9-8 17-17 17h-10c-10 0-18-8-18-17v-10c0-10 8-18 18-18z m94 0h9c10 0 18 8 18 18v10c0 9-8 17-18 17h-9c-10 0-18-8-18-17v-10c0-10 8-18 18-18z m93 0h10c10 0 18 8 18 18v10c0 9-8 17-18 17h-10c-9 0-17-8-17-17v-10c0-10 8-18 17-18z m-562-105h10c10 0 18 8 18 18v10c0 10-8 18-18 18h-10c-10 0-18-8-18-18v-10c0-10 8-18 18-18z m94 0h10c9 0 17 8 17 18v10c0 10-8 18-17 18h-10c-10 0-18-8-18-18v-10c0-10 8-18 18-18z m94 0h9c10 0 18 8 18 18v10c0 10-8 18-18 18h-9c-10 0-18-8-18-18v-10c0-10 8-18 18-18z m93 0h10c10 0 18 8 18 18v10c0 10-8 18-18 18h-10c-9 0-17-8-17-18v-10c0-10 8-18 17-18z m94 0h10c9 0 17 8 17 18v10c0 10-8 18-17 18h-10c-10 0-18-8-18-18v-10c0-10 8-18 18-18z m94 0h9c10 0 18 8 18 18v10c0 10-8 18-18 18h-9c-10 0-18-8-18-18v-10c0-10 8-18 18-18z m93 0h10c10 0 18 8 18 18v10c0 10-8 18-18 18h-10c-9 0-17-8-17-18v-10c0-10 8-18 17-18z m-562-104h10c10 0 18 8 18 18v9c0 10-8 18-18 18h-10c-10 0-18-8-18-18v-9c0-10 8-18 18-18z m94 0h10c9 0 17 8 17 18v9c0 10-8 18-17 18h-10c-10 0-18-8-18-18v-9c0-10 8-18 18-18z m94 0h9c10 0 18 8 18 18v9c0 10-8 18-18 18h-9c-10 0-18-8-18-18v-9c0-10 8-18 18-18z m93 0h10c10 0 18 8 18 18v9c0 10-8 18-18 18h-10c-9 0-17-8-17-18v-9c0-10 8-18 17-18z m94 0h10c9 0 17 8 17 18v9c0 10-8 18-17 18h-10c-10 0-18-8-18-18v-9c0-10 8-18 18-18z" horiz-adv-x="1000" />
<glyph glyph-name="alt_thin-024_calendar_date" unicode="&#xe829;" d="m845 768h-674c-59 0-106-48-106-106v-676c0-58 47-106 106-106h674c58 0 106 48 106 106v676c0 58-48 106-106 106z m-674-36h674c39 0 70-31 70-70v-134h-137v0h-36v0h-127v0h-35v0h-127v0h-36v0h-144v0h-35v0h-137v134c0 39 31 70 70 70z m282-506v106h127v-106h-127z m127-36v-120h-127v120h127z m-163 36h-144v106h144v-106z m198 106h127v-106h-127v106z m0 36v124h127v-124h-127z m-35 0h-127v124h127v-124z m-163 0h-144v124h144v-124z m-179 0h-137v124h137v-124z m0-36v-106h-137v106h137z m0-142v-120h-137v120h137z m35 0h144v-120h-144v120z m144-156v-118h-144v118h144z m36 0h127v-118h-127v118z m162 0h127v-118h-127v118z m0 36v120h127v-120h-127z m163 120h137v-120h-137v120z m0 36v106h137v-106h-137z m0 142v124h137v-124h-137z m-677-382v48h137v-118h-67c-39 0-70 31-70 70z m744-70h-67v118h137v-48c0-39-31-70-70-70z m-536 666c28 0 50 22 50 49 0 27-22 50-50 50s-49-23-49-50c0-27 22-49 49-49z m0 63c8 0 14-6 14-14 0-7-6-13-13-13-8 0-14 6-14 13 0 8 6 14 13 14z m399-63c27 0 49 22 49 49 0 27-22 50-49 50-27 0-49-23-49-50 0-27 22-49 49-49z m0 63c8 0 14-6 14-14 0-7-6-13-14-13-7 0-13 6-13 13 0 8 6 14 13 14z" horiz-adv-x="1000" />
<glyph glyph-name="alt_thin-123_location_pin_map" unicode="&#xe82a;" d="m510-15c6 0 11 3 15 8 10 15 245 375 245 513 0 143-117 260-260 260s-261-117-261-260c0-138 236-498 246-513 3-5 9-8 15-8z m0 745c124 0 225-100 225-224 0-109-173-388-225-470-53 82-225 361-225 470 0 124 101 224 225 224z m104-206c0 58-47 104-104 104s-104-46-104-104c0-57 46-104 104-104s104 47 104 104z m-104-68c-38 0-69 30-69 68 0 38 31 69 69 69 38 0 68-31 68-69 0-38-30-68-68-68z m114-388c-9 2-19-4-21-14s5-19 15-21c65-13 101-36 101-51 0-25-82-61-209-61-128 0-209 36-209 61 0 15 36 39 102 51 9 2 16 12 14 21-2 10-11 16-21 14-83-16-131-47-131-86 0-64 123-97 245-97 121 0 244 33 244 97 0 39-47 70-130 86z" horiz-adv-x="1000" />
<glyph glyph-name="alt_thin-136_shopping_cart_store_basket_purchase" unicode="&#xe82b;" d="m338 471c6 0 11 2 14 7l122 153c9-5 19-8 30-8 11 0 20 3 29 8l122-153c4-5 9-7 14-7 4 0 8 1 11 4 8 6 9 17 3 25l-124 157c4 9 7 18 7 29 0 34-28 62-62 62-35 0-63-28-63-62 0-11 3-20 8-29l-125-157c-6-8-4-19 3-25 4-3 8-4 11-4z m166 242c14 0 26-12 26-27 0-15-12-27-26-27-15 0-27 12-27 27 0 15 12 27 27 27z m224-516h-431c-10 0-18-8-18-18s8-18 18-18h431c10 0 18 8 18 18s-8 18-18 18z m27 102h-485c-9 0-17-8-17-18s8-18 17-18h485c10 0 18 8 18 18 0 10-8 18-18 18z m-54-205h-377c-10 0-18-8-18-17s8-18 18-18h377c10 0 18 8 18 18s-8 17-18 17z m161 342h-711c-49 0-89-40-89-89v-23c0-35 21-66 52-80l68-239c1-3 2-5 3-8 33-64 73-70 108-70h427c35 0 75 6 108 70 1 3 2 5 2 8l69 239c31 14 51 45 51 80v23c0 49-39 89-88 89z m53-112c0-23-15-43-37-50-5-2-10-6-11-12l-71-249c-24-47-47-50-76-50h-427c-30 0-52 3-76 51l-71 248c-2 6-6 10-12 12-21 7-36 27-36 50v23c0 30 24 53 53 53h711c29 0 53-23 53-53v-23h0z" horiz-adv-x="1000" />
<glyph glyph-name="alt_thin-328_phone_book_number_contact" unicode="&#xe82d;" d="m856 775h-630c-26 0-48-22-48-48v-41h-43c-10 0-18-8-18-18s8-18 18-18h43v-77h-43c-10 0-18-8-18-18 0-10 8-18 18-18h43v-77h-43c-10 0-18-8-18-18s8-18 18-18h43v-77h-43c-10 0-18-8-18-18s8-18 18-18h43v-75h-43c-10 0-18-8-18-18s8-18 18-18h43v-75h-43c-10 0-18-8-18-18s8-18 18-18h43v-77h-43c-10 0-18-8-18-18s8-18 18-18h43v-43c0-27 22-48 48-48h630c27 0 48 21 48 48v794c0 26-21 48-48 48z m13-842c0-7-6-13-13-13h-630c-6 0-12 6-12 13v43h41c10 0 18 8 18 18s-8 18-18 18h-41v77h41c10 0 18 8 18 18s-8 18-18 18h-41v75h41c10 0 18 8 18 18s-8 18-18 18h-41v75h41c10 0 18 8 18 18s-8 18-18 18h-41v77h41c10 0 18 8 18 18s-8 18-18 18h-41v77h41c10 0 18 8 18 18s-8 18-18 18h-41v77h41c10 0 18 8 18 18s-8 18-18 18h-41v41c0 7 6 12 12 12h630c7 0 13-5 13-12v-794z m-215 323c-4 11-15 19-27 19-3 0-5 0-8-1l-4-1c-7-3-24-8-32-11-10 8-31 43-40 90-4 21-3 32-2 36l36 12c7 2 13 8 16 14 4 7 4 14 2 21l-45 136c-2 7-7 13-14 17-6 3-14 3-21 1l-7-2c-11-4-34-11-36-12-88-31-102-122-45-294 48-148 103-217 172-217 0 0 1 0 1 0 15 0 28 4 37 6l2 1c0 0 41 13 43 14 14 6 22 21 17 35l-45 136z m-25-151l-3 0c-7-3-16-5-27-5l0-18v18c-50 0-97 64-139 192-71 216-5 239 25 250 1 0 22 7 34 11l39-121-34-12c-18-6-24-33-16-74 9-51 40-121 74-121 2 0 5 1 7 1 2 1 22 8 33 11l41-121c-12-3-32-10-34-11z" horiz-adv-x="1000" />
<glyph glyph-name="alt_thinking_brain_head_mind" unicode="&#xe82f;" d="m879 547c-25 178-266 218-309 218l-13 0c-293 0-332-201-336-262-5-43-24-122-53-151-10-10-32-32-21-59 11-26 38-27 55-27-1-5-2-8-2-11-2-5-4-12-4-21 0-13 5-24 15-31-5-15-2-31 11-43 1-2 2-8 2-28 0-59 58-87 103-80l5 1c9 1 19 3 28 3 12 0 16-3 18-7 6-7 11-13 16-18 14-16 23-25 23-68 0-36 5-52 7-57l2-5c2-7 9-12 16-12 2 0 4 1 5 1l303 90c8 2 13 10 12 19-7 59 0 156 45 237 12 21 22 39 31 55 53 91 63 108 41 256z m-72-239c-9-15-20-33-32-55-45-82-55-179-50-243l-270-81c-2 8-3 18-3 34 0 53-12 71-32 92-4 5-9 10-13 16-14 18-33 21-47 21-12 0-23-2-34-4l-4-1c-28-4-62 10-62 45 0 34-3 43-13 53-3 3-5 5 0 12 2 2 3 3 4 4 3 5 3 11 1 16-2 5-7 9-12 11-8 2-8 4-8 6 0 4 1 7 2 12 2 6 4 15 7 35 1 9-6 17-14 19-7 1-16 1-23 1-12 1-22 1-24 5-1 4 3 10 13 21 49 48 63 170 63 172 17 214 235 230 301 230l13 0c33 0 252-35 274-187 20-136 13-147-37-234z m-241 229c-46 0-82-36-82-82s36-82 82-82c45 0 82 37 82 82s-37 82-82 82z m0-128c-26 0-47 21-47 46s21 47 47 47c25 0 46-21 46-47s-21-46-46-46z m174 88l-36 5c-2 6-4 13-8 19l22 28c5 6 5 15 0 22-10 14-23 26-37 37-6 5-15 5-22 0l-28-22c-6 3-12 6-19 8l-5 35c-1 8-7 15-15 16-18 2-35 2-53 0-8-1-14-8-15-16l-5-35c-6-2-12-5-19-8l-28 22c-6 5-15 5-22 0-6-5-12-10-18-16l-3-3c-6-6-11-12-16-18-5-7-5-16 0-22l22-28c-3-6-6-13-8-19l-35-5c-8-1-15-7-16-15-1-8-1-16-2-24v-5c1-8 1-16 2-24 1-8 8-14 16-15l35-5c2-6 5-13 8-19l-22-28c-5-7-5-15 0-22 5-6 10-12 16-18l3-3c6-6 12-11 18-16 7-5 16-5 22 0l28 22c7-3 13-6 19-8l5-36c1-8 7-14 15-15 9-1 18-2 27-2 8 0 17 1 26 2 8 1 14 7 15 15l5 36c7 2 13 5 19 8l28-22c7-5 16-5 22 0 14 11 27 23 37 37 5 7 5 15 0 22l-22 28c4 6 6 13 8 19l36 5c8 1 14 7 15 15 1 9 2 18 2 26s-1 18-2 27c-1 8-7 14-15 15z m-19-50l-33-4c-7-1-13-6-15-14-3-11-7-21-13-31-4-6-3-14 1-20l20-27c-3-4-7-8-11-11l-27 20c-5 5-13 5-20 1-10-6-20-10-31-13-8-2-13-8-14-15l-4-33c-6 0-11 0-16 0l-5 33c-1 7-6 13-13 15-11 3-22 7-32 13-6 4-14 4-20-1l-26-20c-2 1-4 3-5 4l-3 3c-1 1-2 3-4 4l20 27c5 5 5 13 1 20-6 10-10 20-13 31-1 8-7 13-15 14l-33 4c0 2 0 4 0 6v5c0 2 0 4 0 6l33 4c8 1 14 6 15 13 3 12 7 22 13 32 4 6 4 14-1 20l-20 27c1 1 3 3 4 4l3 3c1 1 3 3 5 4l26-20c6-5 14-5 20-1 10 6 21 10 32 13 7 2 12 8 13 15l5 33c5 0 10 0 16 0l4-33c1-7 6-13 14-15 11-3 21-7 31-13 7-4 15-4 20 1l27 20c4-4 8-7 11-11l-20-27c-4-6-5-14-1-20 6-10 10-20 13-32 2-7 8-12 15-13l33-4c0-3 0-6 0-9s0-5 0-8z" horiz-adv-x="1000" />
<glyph glyph-name="alt_user_personal_id_profile" unicode="&#xe830;" d="m206 203h307c16 0 30 13 30 29v42c0 12-8 24-19 28-83 32-102 46-106 50v5c10 12 17 26 23 42 8 8 13 20 13 32 0 8-2 16-6 23v32c0 52-33 83-88 83-55 0-89-32-89-83v-32c-4-7-6-15-6-23 0-12 5-24 14-32 5-16 13-30 22-42v-5c-5-5-26-19-105-50-12-5-19-16-19-28v-42c0-16 13-29 29-29z m6 67c107 42 120 58 124 72 1 2 1 3 1 5v17c0 5-2 9-5 12-9 10-16 23-20 38-2 4-4 8-7 10-3 2-4 4-4 7 0 3 1 5 2 6 3 3 4 7 4 11v38c0 31 18 47 53 47 36 0 52-15 52-47v-38c0-4 2-8 4-11 1-1 3-3 3-6 0-3-2-5-4-7-4-2-6-6-7-10-4-15-12-28-21-38-3-3-5-7-5-12v-17c0-2 1-3 1-5 4-14 17-31 124-72v-32h-295v32z m371 65h235c10 0 18 8 18 18s-8 18-18 18h-235c-9 0-17-8-17-18s8-18 17-18z m0 100h235c10 0 18 8 18 18s-8 17-18 17h-235c-9 0-17-7-17-17s8-18 17-18z m342 272h-838c-10 0-18-8-18-17v-725c0-10 8-18 18-18h172c10 0 18 8 18 18v57c0 23 19 42 42 42s41-19 41-42v-57c0-10 8-18 18-18h256c10 0 18 8 18 18v57c0 23 19 42 42 42 23 0 42-19 42-42v-57c0-10 8-18 18-18h171c10 0 18 8 18 18v725c0 9-8 17-18 17z m-18-724h-136v39c0 42-34 77-77 77-43 0-78-35-78-77v-39h-220v39c0 42-35 77-77 77s-78-35-78-77v-39h-136v689h802v-689z" horiz-adv-x="1000" />
<glyph glyph-name="alt_wall_clock_time" unicode="&#xe840;" d="m508 768c-243 0-440-197-440-440s197-441 440-441 441 198 441 441-198 440-441 440z m0-845c-223 0-405 181-405 405s182 405 405 405 405-182 405-405-182-405-405-405z m-262 281c12 0 22-10 22-22s-10-22-22-22-22 10-22 22 10 22 22 22z m524 303c12 0 22-10 22-23s-10-22-22-22-23 10-23 22 10 23 23 23z m-415 109c12 0 22-10 22-23s-10-22-22-22-22 10-22 22 10 23 22 23z m302-524c13 0 23-10 23-23s-10-22-23-22-22 10-22 22 10 23 22 23z m-301 1c12 0 22-10 22-22s-10-22-22-22-23 10-23 22 10 22 23 22z m302 524c12 0 22-10 22-22s-10-22-22-22-22 10-22 22 10 22 22 22z m-414-113c13 0 23-10 23-22s-10-23-23-23-22 10-22 23 10 22 22 22z m524-303c13 0 23-10 23-22s-10-22-23-22-22 10-22 22 10 22 22 22z m-262 108c2 0 4 1 7 2l142 59c10 4 14 14 10 23-4 9-14 14-23 10l-132-55-188 187c-7 7-18 7-25 0-7-7-7-18 0-25l196-195c4-4 8-6 13-6z m305 72c-27 0-48-21-48-48 0-26 21-47 48-47s47 21 47 47c0 27-21 48-47 48z m0-60c-7 0-12 6-12 12 0 7 5 12 12 12s12-5 12-12c0-6-6-12-12-12z m-558 12c0 27-21 48-47 48s-48-21-48-48c0-26 21-47 48-47s47 21 47 47z m-47-12c-7 0-12 6-12 12 0 7 5 12 12 12 6 0 12-5 12-12 0-6-6-12-12-12z m302 266c26 0 48 21 48 47s-22 48-48 48-48-21-48-48 22-47 48-47z m0 60c7 0 12-6 12-13s-5-12-12-12-12 6-12 12c0 7 5 13 12 13z m0-569c-26 0-48-22-48-48s22-48 48-48 48 22 48 48c0 26-22 48-48 48z m0-60c-7 0-12 5-12 12 0 7 5 12 12 12s12-5 12-12c0-7-5-12-12-12z" horiz-adv-x="1000" />
<glyph glyph-name="alt_wireless_wifi_signal_hotspot" unicode="&#xe83e;" d="m395 152c-10 0-17-5-20-14l-46-139-46 138c-3 10-11 16-20 16h-3c-9 0-17-6-20-16l-46-138-46 139c-3 9-11 14-20 14-11 0-20-8-20-19 0-3 0-6 1-8l62-173c4-11 11-17 21-17h3c10 0 18 6 21 17l45 131 45-131c4-11 11-17 20-17h4c9 0 17 6 21 17l62 173c1 2 2 5 2 8 0 11-9 19-20 19z m77 0c-11 0-20-8-20-20v-175c0-11 9-20 20-20 12 0 21 9 21 20v175c-1 12-9 20-21 20z m137-101h-56c-11 0-20-9-20-20 0-10 9-19 20-19h56c10 0 19 9 19 19 0 11-9 20-19 20z m200 100h-122c-11 0-20-9-20-20v-174c0-11 9-20 20-20 11 0 20 9 20 20v66h88c11 0 19 9 19 19s-8 18-19 18h-88v54h102c10 0 18 8 18 18 0 11-8 19-18 19z m76 1c-11 0-20-8-20-20v-175c0-11 9-20 20-20 11 0 20 9 20 20v175c0 12-9 20-20 20z m-596 258c57 62 136 96 220 96s162-34 220-96c3-4 8-6 13-6 4 0 9 2 12 5 7 7 8 18 1 25-65 69-152 108-246 108s-182-39-247-108c-6-7-6-18 1-25 7-7 19-6 26 1z m579 138c-95 99-223 153-359 153-137 0-265-54-359-153-7-8-7-19 0-26 7-7 19-6 25 1 88 92 207 143 334 143s245-51 333-143c3-4 8-6 13-6 4 0 9 2 12 5 7 7 7 18 1 26z m-359-166c-51 0-100-22-134-61-6-7-6-19 2-25 7-7 18-6 25 1 27 31 66 49 107 49 40 0 79-18 106-49 4-4 9-6 14-6 4 0 8 2 11 5 8 6 9 18 2 25-34 39-82 61-133 61z" horiz-adv-x="1000" />
<glyph glyph-name="alt_world_globe_internation_region_language_earth" unicode="&#xe83d;" d="m941 332c0 242-195 438-436 441-1 0-2 0-3 0v0c0 0-1 0-2 0 0 0-1 0-1 0v0c-1 0-1 0-2 0-241-2-437-199-437-441 0-242 196-439 437-440 1 0 1 0 2 0v0c0 0 1 0 1 0 1 0 2 0 2 0v0c1 0 2 0 3 0 241 3 436 199 436 440z m-845-18h174c1-57 8-111 19-161h-152c-24 49-39 104-41 161z m808 36h-173c-1 57-7 110-18 159h151c24-49 38-102 40-159z m-208 0h-178v159h158c11-49 18-103 20-159z m-178 194v192c62-11 116-86 148-192h-148z m-36 191v-191h-147c32 106 86 180 147 191z m0-226v-159h-176c1 56 8 110 19 159h157z m-212-159h-174c2 57 16 110 40 159h152c-11-49-17-102-18-159z m36-36h176v-161h-156c-12 50-19 104-20 161z m176-196v-189c-61 12-114 85-146 189 0 0 146 0 146 0z m36-189v189h147c-32-105-86-178-147-189z m0 224v161h178c-2-57-9-111-21-161h-157z m213 161h173c-2-57-17-112-41-161h-151c11 50 18 104 19 161z m114 230h-141c-21 76-53 137-93 177 98-28 181-92 234-177z m-455 178c-39-40-72-102-93-178h-142c53 86 137 150 235 178z m-233-604h141c21-75 53-136 92-175-97 27-180 91-233 175z m454-175c39 40 71 100 92 175h140c-53-84-135-147-232-175z" horiz-adv-x="1000" />
<glyph glyph-name="alt_write_pencil_new_edit" unicode="&#xe83b;" d="m495 119h-273c-9 0-17-8-17-17s8-18 17-18h273c9 0 17 8 17 18s-8 17-17 17z m0 124h-273c-9 0-17-8-17-18s8-17 17-17h273c9 0 17 8 17 17s-8 18-17 18z m0 124h-273c-9 0-17-8-17-18 0-10 8-18 17-18h273c9 0 17 8 17 18s-8 18-17 18z m-273 88h100c10 0 18 8 18 18 0 10-8 18-18 18h-100c-9 0-17-8-17-18 0-10 8-18 17-18z m306 301c-9 9-21 14-33 14 0 0 0 0 0 0h-382c-26 0-47-21-47-47v-786c0-26 21-48 47-48h505c26 0 47 22 47 48v664c0 13-5 25-14 34l-123 121z m89-137h-104l-1 103 105-103z m1-694h-505c-6 0-12 5-12 12v786c0 6 6 12 12 12h364l0-134c0-9 8-17 18-17h135v-647c0-7-6-12-12-12z m321 830c-7 9-16 15-27 15l-123 0c-11 0-20-6-27-15-5-8-8-18-8-28v-572c0-5 1-10 2-15l62-214c5-17 17-29 33-29l0 12c0 0 0 0 0 0v-12l0 0c10 0 20 6 26 16 3 3 5 8 6 13l62 214c1 5 2 10 2 15v569l0 3c0 10-3 20-8 28z m-148-20l119 0c1-2 2-5 2-8l0-554h-123l1 528v26c-1 3 0 6 1 8z m73-749h-27l-43 151h113l-43-151z" horiz-adv-x="1000" />
<glyph glyph-name="analytics_bar_chart_diagram_presentation_sales" unicode="&#xe838;" d="m933 541l-67 0v102c0 10-8 18-18 18h-106l2 19c1 10-7 18-17 19l-529 44c-5 1-9-1-13-4s-6-7-6-12l-6-66h-85c-10 0-18-8-18-18v-587c0-9 8-17 18-17h33l-6-71c-1-10 7-19 16-20l530-44c0 0 1 0 1 0 4 0 9 1 12 4 3 3 6 8 6 12l2 28 249-1c0 0 0 0 0 0 4 0 9 1 12 5 4 3 6 8 6 12l2 559c0 10-8 18-18 18z m-720 165l494-41-1-4h-497l4 45z m-107-81h724v-551h-724v551z m46-643l5 57h497l-8-98-494 41z m761 0l-228 1 5 56h158c10 0 18 8 18 17v449l49 0-2-523z m-458 420c-6 0-8 0-88-35l10 85c1 8-1 15-6 21s-12 10-19 11c-7 1-13 1-20 1-81 0-150-61-160-141-11-89 52-169 141-180 6-1 13-1 19-1 82 0 151 61 160 141 4 27 0 55-10 80-5 11-15 18-27 18z m2-93c-8-63-61-111-125-111-5 0-10 1-15 1-69 9-118 71-110 140 8 63 62 111 125 111 3 0 6 0 9-1l-14-109c0-7 2-13 7-17 6-4 12-4 18-2 43 19 83 37 99 43 6-18 8-37 6-55z m270-72h-144c-10 0-18-8-18-18s8-18 18-18h144c10 0 17 8 17 18s-7 18-17 18z m0 112h-144c-10 0-18-8-18-18s8-18 18-18h144c10 0 17 8 17 18s-7 18-17 18z m0 111h-144c-10 0-18-8-18-18s8-18 18-18h144c10 0 17 8 17 18s-7 18-17 18z" horiz-adv-x="1000" />
<glyph glyph-name="analytics_bar_chart_diagram" unicode="&#xe836;" d="m273 545h-164c-24 0-43-19-43-43v-548c0-24 19-43 43-43h164c23 0 42 19 42 43v548c0 24-19 43-42 43z m7-591c0-4-4-7-7-7h-164c-4 0-8 3-8 7v548c0 4 4 7 8 7h164c3 0 7-3 7-7l0-548 0 0z m308 400h-164c-24 0-43-19-43-42v-358c0-24 19-43 43-43h164c24 0 43 19 43 43v358c0 23-19 42-43 42z m7-400c0-4-3-7-7-7h-164c-4 0-7 3-7 7v358c0 4 3 7 7 7h164c4 0 7-3 7-7v-358z m309 763h-164c-24 0-43-20-43-43v-720c0-24 19-43 43-43h164c23 0 42 19 42 43v720c0 23-19 43-42 43z m7-763c0-4-4-7-7-7h-164c-4 0-8 3-8 7v720c0 4 4 7 8 7h164c3 0 7-3 7-7l0-720 0 0z" horiz-adv-x="1000" />
<glyph glyph-name="application_window_alert_error" unicode="&#xe831;" d="m930 719h-853c-10 0-18-8-18-18v-210-534c0-10 8-18 18-18h853c10 0 18 8 18 18v534 210c0 10-8 18-18 18z m-18-60l-150-150h-95l175 175h70l0-25 0 0z m0-51v-99h-99l99 99z m-391-99l175 175h95l-175-175h-95z m-146 0l175 175h95l-174-175h-96z m-146 0l175 175h95l-174-175h-96z m-134 0v11l163 164h96l-175-175h-84z m113 175l-113-113v113h113z m-113-709v498h817v-498h-817z m545 386c-7 7-18 7-25 0l-112-111-111 111c-7 7-18 7-25 0s-7-18 0-25l111-111-111-112c-7-7-7-18 0-25 3-3 8-5 12-5s10 2 13 5l111 111 112-111c3-3 8-5 12-5s9 2 13 5c7 7 7 18 0 25l-111 112 111 111c7 7 7 18 0 25z" horiz-adv-x="1000" />
<glyph glyph-name="application_window_alert_notification_error" unicode="&#xe841;" d="m930 719h-853c-10 0-18-8-18-18v-210-534c0-10 8-18 18-18h853c10 0 18 8 18 18v534 210c0 10-8 18-18 18z m-18-60l-150-150h-95l175 175h70l0-25 0 0z m0-51v-99h-99l99 99z m-391-99l175 175h95l-175-175h-95z m-146 0l175 175h95l-174-175h-96z m-146 0l175 175h95l-174-175h-96z m-134 0v11l163 164h96l-175-175h-84z m113 175l-113-113v113h113z m-113-709v498h817v-498h-817z m453 384c-9 16-26 26-45 26-18 0-35-10-45-26l-123-217c-9-16-9-36 0-52 10-16 27-26 45-26h247c18 0 35 10 44 26 10 16 10 36 1 51l-124 218z m92-251c-2-5-8-8-13-8h-247c-6 0-11 3-14 8-3 5-3 11 0 16l123 217c3 5 9 8 14 8 6 0 11-3 14-8l124-217c2-5 2-11-1-16z m-137 193c-9 0-17-8-17-18v-99c0-10 8-18 17-18s18 8 18 18v99c0 10-8 18-18 18z m0-142c-9 0-17-8-17-18v-3c0-10 8-18 17-18s18 8 18 18v3c0 10-8 18-18 18z" horiz-adv-x="1000" />
<glyph glyph-name="application_window_cursor" unicode="&#xe842;" d="m430 395c-6 5-14 5-20 2-6-4-10-11-9-18l37-267c1-6 5-12 11-14 6-2 13-1 18 3l46 40 44-82c2-4 6-7 11-8 2-1 3-1 5-1 3 0 6 1 9 3l51 34c4 3 7 7 8 12 1 5-1 10-4 14l-54 69 53 21c6 2 10 8 11 14 1 7-2 13-7 17l-210 161z m118-188c-5-2-9-7-10-12s-1-12 3-16l56-73-18-12-45 83c-3 5-8 8-13 9-1 0-2 1-3 1-4 0-9-2-12-5l-37-32-27 191 152-116-46-18z m385 512h-853c-10 0-18-8-18-18v-210-534c0-10 8-18 18-18h853c10 0 18 8 18 18v534 210c0 10-8 18-18 18z m-835-35h817v-175h-817v175z m0-709v498h817v-498h-817z m422 601h-90c-10 0-18-8-18-18s8-18 18-18h90c10 0 18 8 18 18s-8 18-18 18z m336 71c-7 7-18 7-25 0l-26-26-26 26c-7 7-18 7-25 0s-7-18 0-25l26-26-26-26c-7-7-7-18 0-25 4-3 8-5 13-5s9 2 12 5l26 26 26-26c3-3 8-5 13-5s9 2 12 5c7 7 7 18 0 25l-26 26 26 26c7 7 7 18 0 25z m-179 2h-79c-10 0-18-8-18-18v-73c0-10 8-18 18-18h79c10 0 18 8 18 18v73c0 10-8 18-18 18z m-18-73h-43v37h43v-37z" horiz-adv-x="1000" />
<glyph glyph-name="application_window_message_box" unicode="&#xe843;" d="m930 719h-853c-10 0-18-8-18-18v-210-534c0-10 8-18 18-18h853c10 0 18 8 18 18v534 210c0 10-8 18-18 18z m-18-60l-150-150h-95l175 175h70c0 0 0-25 0-25z m0-51v-99h-99l99 99z m-391-99l175 175h95l-175-175h-95z m-146 0l175 175h95l-174-175h-96z m-146 0l175 175h95l-174-175h-96z m-134 0v11l163 164h96l-175-175h-84z m113 175l-113-113v113h113z m-113-709v498h817v-498h-817z m640 163h-455c-10 0-18-8-18-18s8-18 18-18h455c10 0 18 8 18 18s-8 18-18 18z m0 104h-455c-10 0-18-8-18-17s8-18 18-18h455c10 0 18 8 18 18s-8 17-18 17z m0 105h-455c-10 0-18-8-18-18s8-17 18-17h455c10 0 18 8 18 17s-8 18-18 18z" horiz-adv-x="1000" />
<glyph glyph-name="application_window_settings_configuration" unicode="&#xe844;" d="m933 719h-853c-10 0-18-8-18-18v-210-534c0-10 8-18 18-18h853c10 0 18 8 18 18v534 210c0 10-8 18-18 18z m-835-35h817v-175h-817v175z m0-709v498h817v-498h-817z m422 601h-90c-10 0-18-8-18-18s8-18 18-18h90c10 0 18 8 18 18s-8 18-18 18z m336 71c-7 7-18 7-25 0l-26-26-26 26c-7 7-18 7-25 0s-7-18 0-25l26-26-26-26c-7-7-7-18 0-25 4-3 8-5 13-5s9 2 12 5l26 26 26-26c3-3 8-5 13-5s9 2 12 5c7 7 7 18 0 25l-26 26 26 26c7 7 7 18 0 25z m-179 2h-79c-10 0-18-8-18-18v-73c0-10 8-18 18-18h79c10 0 18 8 18 18v73c0 10-8 18-18 18z m-18-73h-43v37h43v-37z m-126-286c-9 3-18 5-27 5-28 0-54-17-64-43-8-18-7-37 0-54s20-30 38-37c8-4 17-6 26-6 29 0 54 17 65 44 7 17 7 36 0 53s-21 31-38 38z m5-78c-7-17-27-25-45-18-8 3-15 10-18 18-4 8-4 18 0 26 5 13 17 21 31 21 5 0 9 0 13-2 9-4 15-10 19-19 3-8 3-17 0-26z m145-14l-31 18c1 6 1 13 0 20l31 18c7 4 10 12 8 20-4 17-11 34-20 49-4 7-12 10-20 8l-35-9c-4 5-9 10-14 14l9 35c2 7-1 16-8 20-8 4-16 8-24 11-8 4-17 6-25 9-8 2-16-2-20-9l-18-31c-7 1-14 1-21 0l-18 31c-4 7-12 10-20 8-7-2-15-4-23-8l-4-1c-7-3-14-7-21-11-7-4-11-12-8-20l9-35c-5-4-10-9-15-14l-34 9c-8 2-16-2-20-9-4-6-8-13-11-21l-2-5c-3-7-5-15-7-22-2-8 1-16 8-20l31-18c0-7 0-14 0-21l-30-18c-7-4-11-12-9-20 2-7 5-15 8-23l2-4c3-7 7-15 11-21 4-7 12-11 20-9l34 10c5-5 10-10 15-15l-9-34c-2-8 1-16 8-20 8-5 16-9 24-12 8-3 16-6 25-8 1-1 3-1 4-1 7 0 13 4 16 9l18 31c6 0 13 0 20 0l18-31c4-6 12-10 20-8 17 5 34 12 49 21 7 4 10 12 8 20l-9 34c5 5 10 10 14 15l35-9c7-2 16 1 20 8 4 8 8 16 11 24 4 8 6 16 9 25 2 8-2 16-9 20z m-33-32c-1-2-2-5-3-7l-32 8c-7 2-15-1-19-7-7-9-15-17-24-24-6-4-9-12-7-19l9-32c-5-2-10-4-15-6l-17 28c-4 7-11 10-18 9-11-2-23-2-34 0-8 1-15-3-19-9l-16-29c-3 1-5 2-8 3-2 1-5 2-7 3l8 32c2 8 0 15-6 20-10 6-18 14-25 24-4 6-12 8-19 6l-32-8c-1 2-2 3-3 5l-1 4c-1 2-2 4-2 6l28 16c7 4 10 11 9 19-2 11-2 23 0 34 1 7-2 14-9 18l-29 17c1 1 2 3 2 5l2 4c1 2 2 4 2 6l33-9c7-2 14 1 19 7 6 9 14 18 24 24 6 5 8 12 6 19l-8 32c2 1 3 2 5 3l4 1c2 1 4 2 6 3l16-29c4-6 11-10 19-9 11 2 23 2 34 1 7-2 15 2 18 8l17 29c2-1 5-2 7-3 3-1 5-2 8-3l-9-32c-2-7 1-15 7-19 9-7 18-15 24-24 5-6 12-9 19-7l32 9c3-5 5-10 7-15l-29-17c-6-4-10-11-9-18 2-12 2-23 1-34-2-8 2-15 8-19l29-16c-1-3-2-5-3-8z" horiz-adv-x="1000" />
<glyph glyph-name="application_window_shell_code_comand_prompt" unicode="&#xe845;" d="m933 719h-853c-10 0-18-8-18-18v-210-534c0-10 8-18 18-18h853c10 0 18 8 18 18v534 210c0 10-8 18-18 18z m-835-35h817v-175h-817v175z m0-709v498h817v-498h-817z m422 601h-90c-10 0-18-8-18-18s8-18 18-18h90c10 0 18 8 18 18s-8 18-18 18z m78-482h-180c-10 0-18-8-18-18s8-18 18-18h180c10 0 18 8 18 18s-8 18-18 18z m258 553c-7 7-18 7-25 0l-26-26-26 26c-7 7-18 7-25 0s-7-18 0-25l26-26-26-26c-7-7-7-18 0-25 4-3 8-5 13-5s9 2 12 5l26 26 26-26c3-3 8-5 13-5s9 2 12 5c7 7 7 18 0 25l-26 26 26 26c7 7 7 18 0 25z m-477-427c1 1 1 2 1 3 0 1 0 2-1 4 0 1 0 2 0 3-1 1-2 2-2 3-1 1-1 1-1 2l-129 147c-6 8-17 9-25 2-7-6-8-18-2-25l119-136-119-135c-6-8-5-19 2-26 4-3 8-4 12-4 5 0 10 2 13 6l129 148c0 0 0 1 1 1 0 2 1 3 2 4 0 1 0 2 0 3z m298 429h-79c-10 0-18-8-18-18v-73c0-10 8-18 18-18h79c10 0 18 8 18 18v73c0 10-8 18-18 18z m-18-73h-43v37h43v-37z" horiz-adv-x="1000" />
<glyph glyph-name="arrow_left_navigate_previous" unicode="&#xe846;" d="m838 438l-335 36 0 116c0 5-1 9-2 13 0 2-1 3-1 5-1 3-3 7-5 10l-1 3c-2 3-5 6-7 8l-3 3c-4 4-8 6-12 9-19 9-42 8-60-5l-321-261c-15-10-24-27-24-46 0-18 9-35 23-45l323-261c9-7 20-11 33-11l2 0c4 0 8 1 11 2 4 0 9 2 13 4 19 10 31 29 31 51l0 116 335 36c60 0 108 49 108 108 0 60-48 109-108 109z m-1-182l-370-39 0-148c0-8-4-16-12-19-1-1-2-1-4-2-1 0-3 0-4 0l-1 0c-5 0-9 1-12 3l-322 261c-6 4-9 11-9 17 0 7 3 14 10 18l321 260c3 3 7 4 12 4 3 0 6-1 9-2 2-1 4-2 6-4 1-1 2-2 3-5 1-1 1-2 2-5 1-2 1-3 1-5l0-149 368-38 2 0c40 0 73-33 73-74 0-40-33-73-73-73z" horiz-adv-x="1000" />
<glyph glyph-name="arrow_right_navigate_next" unicode="&#xe847;" d="m175 221l335-36 0-116c0-5 1-9 2-13 0-2 1-3 1-5 2-3 3-7 5-10l1-2c3-4 5-7 7-9l3-3c4-4 8-6 12-9 19-9 42-8 60 6l321 260c15 10 24 28 24 46 0 18-9 35-23 45l-322 261c-10 7-21 11-33 11l-3 0c-4 0-7-1-10-2-5 0-10-2-13-4-19-9-32-29-32-51l0-116-335-35c-59-1-108-50-108-109 0-60 49-109 108-109z m1 182l370 39 0 148c0 8 5 16 12 19 1 1 2 1 5 2 1 0 2 0 3 0l2 0c4 0 8-1 11-3l322-261c6-4 9-11 9-17 0-7-3-13-9-18l-321-260c-4-3-8-4-13-4-3 0-6 1-9 2-2 1-4 2-6 4-1 1-2 3-3 5-1 1-1 2-2 5-1 2-1 3-1 5l0 149-368 38-2 1c-40 0-73 32-73 73 0 40 33 73 73 73z" horiz-adv-x="1000" />
<glyph glyph-name="arrow_rotate_left_counter_clockwise" unicode="&#xe848;" d="m535 688c-187 0-341-143-360-325l-72 97c-6 8-17 10-25 4-8-6-10-17-4-25l103-139c3-3 8-6 12-7 1 0 2 0 3 0 4 0 7 1 10 4l139 103c8 6 10 17 4 25-6 8-17 9-25 4l-110-82c11 170 152 305 325 305 180 0 326-146 326-326s-146-326-326-326c-10 0-18-8-18-18s8-18 18-18c200 0 362 163 362 362s-162 362-362 362z m50-436c3-4 8-6 12-6s9 2 13 6c7 7 7 18 0 25l-50 49 50 50c7 7 7 18 0 25s-18 7-25 0l-50-50-49 50c-7 7-19 7-26 0s-7-18 0-25l50-50-50-49c-7-7-7-18 0-25 4-4 9-6 13-6s9 2 13 6l49 49 50-49z" horiz-adv-x="1000" />
<glyph glyph-name="arrow_rotate_right_clockwise" unicode="&#xe849;" d="m486 688c187 0 341-143 360-325l72 97c6 8 17 10 25 4 8-6 10-17 4-25l-103-139c-3-3-7-6-12-7-1 0-2 0-3 0-3 0-7 1-10 4l-139 103c-8 6-9 17-4 25 6 8 18 9 25 4l110-82c-11 170-152 305-325 305-180 0-326-146-326-326s146-326 326-326c10 0 18-8 18-18s-8-18-18-18c-199 0-362 163-362 362s163 362 362 362z m-49-436c-4-4-8-6-13-6s-9 2-13 6c-7 7-7 18 0 25l50 49-50 50c-7 7-7 18 0 25s19 7 26 0l49-50 49 50c7 7 19 7 26 0s7-18 0-25l-50-50 50-49c7-7 7-18 0-25-4-4-8-6-13-6s-9 2-13 6l-49 49-49-49z" horiz-adv-x="1000" />
<glyph glyph-name="arrows_bidirectional" unicode="&#xe84b;" d="m105 534c1-3 3-5 4-6l139-139c4-4 8-5 13-5s9 1 13 5c6 7 6 18 0 25l-109 109h734c9 0 17 8 17 17s-8 18-17 18h-734l109 109c6 7 6 18 0 25s-19 7-26 0l-139-139c-1-2-3-4-4-6-1-2-1-4-1-7s0-4 1-6z m810-395c-1 2-2 4-4 6l-139 139c-7 7-18 7-25 0-7-7-7-19 0-26l108-108h-733c-10 0-18-8-18-18s8-18 18-18h733l-108-108c-7-8-7-19 0-26 3-3 8-5 12-5s10 2 13 5l139 139c2 2 3 4 4 6 1 2 1 5 1 7 0 2 0 5-1 7z" horiz-adv-x="1000" />
<glyph glyph-name="arrows_curves" unicode="&#xe84c;" d="m935 131c-7 7-19 7-26 0l-106-107v466c0 87-72 159-159 159s-159-72-159-159v-332c0-68-55-123-123-123s-123 55-123 123v465l107-107c4-3 8-5 13-5s9 2 12 5c7 7 7 19 0 26l-137 137c-7 7-19 7-25 0l-138-137c-7-7-7-19 0-26s19-7 26 0l107 107v-465c0-88 71-159 158-159s159 71 159 159v332c0 68 55 123 123 123 68 0 123-55 123-123v-466l-107 107c-7 7-18 7-25 0s-7-18 0-25l137-137c3-4 8-6 13-6s9 2 12 6l138 137c7 7 7 18 0 25z" horiz-adv-x="1000" />
<glyph glyph-name="arrows_direction_right" unicode="&#xe84d;" d="m771 283c-7 7-19 7-26 0-7-7-7-18 0-25l109-109h-734c-9 0-17-8-17-18s8-18 17-18h734l-109-108c-7-7-7-19 0-26 4-3 8-5 13-5s9 2 13 5l139 140c7 7 7 18 0 25l-139 139z m-651 239h734l-109-109c-7-7-7-18 0-25 4-3 8-5 13-5s9 2 13 5l139 139c7 7 7 18 0 25l-139 139c-7 7-19 7-26 0s-7-18 0-25l109-108h-734c-9 0-17-8-17-18s8-18 17-18z" horiz-adv-x="1000" />
<glyph glyph-name="arrows_repeat" unicode="&#xe84e;" d="m730 538l-108-108c-7-7-7-18 0-25 3-4 8-6 12-6s9 2 13 6l139 139c3 3 5 7 5 12s-2 9-5 13l-139 139c-7 7-18 7-25 0-7-7-7-18 0-25l108-109h-484c-92 0-167-75-167-167v-145c0-10 8-18 18-18s18 8 18 18v145c0 72 59 131 131 131 0 0 484 0 484 0z m184-113c-10 0-18-8-18-18v-145c0-72-59-131-132-131h-475l109 108c7 7 7 18 0 25s-18 7-25 0l-139-139c-2-1-3-3-4-5-2-5-2-10 0-14 1-2 2-4 4-6l139-139c3-3 8-5 12-5s10 2 13 5c7 7 7 18 0 25l-109 109h475c92 0 167 75 167 167v145c0 10-8 18-17 18z" horiz-adv-x="1000" />
<glyph glyph-name="arrows_resize_split" unicode="&#xe84f;" d="m904 334c2 5 2 10 0 14-1 2-2 4-4 6l-139 139c-7 7-18 7-25 0s-7-18 0-25l109-109h-252v345c0 10-8 18-18 18-9 0-17-8-17-18v-726c0-10 8-18 17-18 10 0 18 8 18 18v345h252l-109-108c-7-7-7-19 0-26 4-3 8-5 13-5s9 2 12 5l139 139c2 2 3 4 4 6z m-465 388c-10 0-18-8-18-18v-345h-251l108 109c7 6 7 18 0 25s-18 7-25 0l-139-139c-1-2-3-4-4-6-1-4-1-9 0-14 1-2 3-4 4-6l139-139c4-3 8-5 13-5s9 2 12 5c7 7 7 19 0 26l-108 108h251v-345c0-10 8-18 18-18s18 8 18 18v726c0 10-8 18-18 18z" horiz-adv-x="1000" />
<glyph glyph-name="arrows_shuffle_crossing" unicode="&#xe850;" d="m721 520h146l-108-108c-7-7-7-18 0-25 3-4 8-6 12-6s9 2 13 6l139 139c3 3 5 8 5 12s-2 10-5 13l-139 139c-7 7-18 7-25 0s-7-18 0-25l108-109h-146c-128 0-232-104-232-232v-13c0-108-88-196-197-196h-173c-10 0-18-8-18-18s8-18 18-18h173c128 0 232 104 232 232v13c0 108 88 196 197 196z m63-257c-7 7-18 7-25 0s-7-19 0-26l108-108h-146c-48 0-94 17-129 48-8 7-19 6-26-1-6-8-5-19 2-25 42-38 97-58 153-58h146l-108-109c-7-7-7-18 0-25 3-3 8-5 12-5s9 2 13 5l139 139c3 4 5 8 5 13s-2 9-5 13l-139 139z m-665 272h173c48 0 94-18 130-49 3-3 7-5 11-5 5 0 10 2 14 6 6 8 6 19-2 26-42 37-97 57-153 57h-173c-10 0-18-8-18-18s8-17 18-17z" horiz-adv-x="1000" />
<glyph glyph-name="arrows_split" unicode="&#xe853;" d="m898 111c-1 3-3 5-4 6l-155 155c-7 7-19 7-26 0-7-7-7-18 0-25l125-124h-193c0 0-69 0-106 38-45 45-2 89-55 143-15 15-33 25-51 32 18 8 36 18 51 33 21 21 31 47 31 78-1 75 71 103 130 103h193l-125-125c-7-7-7-18 0-25 4-4 8-5 13-5s9 1 13 5l155 155c1 2 3 4 4 6 1 4 1 9 0 14-1 2-3 4-4 5l-155 156c-7 7-19 7-26 0s-7-19 0-26l125-124h-193c-76 0-167-41-166-140 0-21-6-38-20-52-39-39-118-40-119-40h-202c-10 0-18-8-18-18l0 0 0 0c0-10 8-18 18-18h202c1 0 80 0 119-39 41-42-3-85 54-143 48-49 129-49 132-49h193l-125-125c-7-7-7-18 0-25 4-4 8-5 13-5s9 1 13 5l155 155c1 2 3 4 4 6 1 4 1 9 0 13z" horiz-adv-x="1000" />
<glyph glyph-name="attachment_paper_clip" unicode="&#xe851;" d="m903 694c-28 29-66 44-106 44s-77-15-105-44l-404-403c-41-41-41-108 0-149 20-20 47-31 75-31 28 0 55 11 75 31l294 294c7 7 7 19 0 26s-18 7-25 0l-294-295c-27-26-73-26-99 0-28 27-28 72 0 99l403 403c21 22 50 34 80 34s59-12 81-34c44-44 44-116 0-161l-504-504c-62-61-162-61-223 0-30 30-46 70-46 112 0 42 16 82 46 111l395 396c7 7 7 18 0 25s-18 7-25 0l-396-395c-36-37-56-86-56-137s20-101 56-137c38-38 88-57 137-57s99 19 137 57l504 504c58 58 58 153 0 211z" horiz-adv-x="1000" />
<glyph glyph-name="bold_arrow" unicode="&#xe860;" d="m608 594l246-249-246-250v19 58l-58-7-403-48v455l403-48 58-7v58 19m-51 126v-145l-461 55v-571l461 55v-145l369 376-369 375 0 0z" horiz-adv-x="1000" />
<glyph glyph-name="bomb" unicode="&#xe800;" d="m933 683c-3 9-12 15-21 15l-43 0-14 39c-4 9-12 15-22 15l0 0c-10 0-18-6-21-15l-14-40-42-1c-10-1-18-7-21-17-3-9 1-19 8-25l14-9c-45-6-119 12-170 35-62 26-99-15-111-40l-12-27c-22 4-43 6-63 6-58 0-74-19-77-34 0-1-7-42-14-75-114-30-204-124-226-244-16-82 2-165 49-234 46-68 117-115 199-130 20-4 39-6 59-6 149 0 278 107 306 254 23 122-29 240-122 309l14 76c3 18-9 35-38 50-14 7-32 14-51 19l9 21c2 4 20 41 63 22 43-18 137-48 200-36l-6-21c-3-10 1-20 9-25 4-3 8-4 13-4 5 0 9 1 13 4l34 24 36-23c3-3 8-4 13-4h0c5 0 9 2 13 5 8 5 11 16 8 25l-13 39 34 26c7 6 10 16 7 26z m-315-319c42-61 57-135 44-207-25-130-139-225-271-225-18 0-35 1-52 5-73 13-135 55-177 116-42 60-57 134-43 206 24 131 138 225 271 225 17 0 34-1 51-4 73-14 136-55 177-116z m-65 176l-11-60c-28 16-60 28-94 35-19 3-39 5-58 5-14 0-28-1-42-3 5 26 10 52 11 59 4 3 16 7 42 7 18 0 38-2 59-6 56-11 88-29 93-37z m298 104l9-28-25 17-25-18 9 29-24 17 29 1 10 29 10-28 30-1-23-18z" horiz-adv-x="1000" />
<glyph glyph-name="book_contact_profile_user" unicode="&#xe86f;" d="m754 230c-104 40-126 58-130 62v9c12 14 21 31 28 51 10 10 16 23 16 37 0 9-3 18-8 26v40c0 60-38 96-103 96-63 0-103-37-103-96v-40c-4-8-7-17-7-26 0-14 6-27 16-37 6-20 16-37 28-51v-9c-5-5-29-23-130-62-12-5-21-17-21-30v-51c0-17 15-32 32-32h370c18 0 32 15 32 32v51c0 13-8 25-20 30z m-16-77h-362v44c129 50 145 70 150 85 0 2 0 4 0 6v20c0 4-1 9-5 12-11 12-20 28-25 47-1 4-4 8-7 10-4 3-6 7-6 12 0 4 2 8 3 9 3 4 4 8 4 12v45c0 40 23 60 67 60 45 0 67-20 67-60v-45c0-4 2-8 4-12 2-1 4-5 4-9 0-5-3-9-6-12-4-2-6-6-7-10-6-19-14-35-26-47-3-3-5-8-5-12v-20c0-2 0-4 1-6 5-15 20-35 149-85l0-44 0 0z m116 622h-630c-26 0-48-22-48-48v-41h-43c-10 0-18-8-18-18s8-18 18-18h43v-77h-43c-10 0-18-8-18-18 0-10 8-18 18-18h43v-77h-43c-10 0-18-8-18-18s8-18 18-18h43v-77h-43c-10 0-18-8-18-18s8-18 18-18h43v-75h-43c-10 0-18-8-18-18s8-18 18-18h43v-75h-43c-10 0-18-8-18-18s8-18 18-18h43v-77h-43c-10 0-18-8-18-18s8-18 18-18h43v-43c0-27 22-48 48-48h630c27 0 48 21 48 48v794c0 26-21 48-48 48z m12-842c0-7-5-13-12-13h-630c-7 0-12 6-12 13v43h41c10 0 18 8 18 18s-8 18-18 18h-41v77h41c10 0 18 8 18 18s-8 18-18 18h-41v75h41c10 0 18 8 18 18s-8 18-18 18h-41v75h41c10 0 18 8 18 18s-8 18-18 18h-41v77h41c10 0 18 8 18 18s-8 18-18 18h-41v77h41c10 0 18 8 18 18s-8 18-18 18h-41v77h41c10 0 18 8 18 18s-8 18-18 18h-41v41c0 7 5 12 12 12h630c7 0 12-5 12-12v-794z" horiz-adv-x="1000" />
<glyph glyph-name="book_reading_read_bookmark" unicode="&#xe86e;" d="m402 413h-211c-10 0-18-8-18-17s8-18 18-18h211c9 0 17 8 17 18s-8 17-17 17z m0-103h-211c-10 0-18-8-18-17s8-18 18-18h211c9 0 17 8 17 18s-8 17-17 17z m0-103h-211c-10 0-18-7-18-17s8-18 18-18h211c9 0 17 8 17 18 0 10-8 17-17 17z m431 389v61c0 9-4 16-9 22-6 6-14 9-22 9h-168c-17 0-31-14-31-31v-61c-41-7-76-19-96-36-36 31-125 46-209 46-109 0-226-25-226-79v-546c0-5 2-10 6-13 3-3 7-5 11-5 1 0 2 1 3 1 125 21 288 21 412 0 1 0 2 0 3 0 1 0 2 0 3 0 125 21 288 21 412 0 1 0 2-1 3-1 5 0 9 2 12 5 4 3 6 8 6 13v546c0 35-48 57-110 69z m-343-594c-59 9-125 14-192 14-66 0-132-5-191-14v525c0 13 67 44 191 44 125 0 192-31 192-44 0 0 0-525 0-525z m148 651h159v-419l-79 79-80-79v419z m270-651c-118 18-265 18-383 0v525c0 8 27 23 78 33v-337c0-12 7-24 19-28 4-2 8-3 12-3 8 0 16 3 22 9l62 62 62-62c9-8 22-11 34-6 3 1 7 3 10 6 5 6 9 14 9 22v337c49-10 75-25 75-33v-525h0z" horiz-adv-x="1000" />
<glyph glyph-name="book_reading_read_manual" unicode="&#xe86d;" d="m398 450h-214c-10 0-18-8-18-18s8-18 18-18h214c10 0 18 8 18 18s-8 18-18 18z m0-104h-214c-10 0-18-8-18-18s8-18 18-18h214c10 0 18 8 18 18s-8 18-18 18z m0-104h-214c-10 0-18-8-18-18s8-18 18-18h214c10 0 18 8 18 18s-8 18-18 18z m427 208h-214c-10 0-18-8-18-18s8-18 18-18h214c10 0 18 8 18 18s-8 18-18 18z m0-104h-214c-10 0-18-8-18-18s8-18 18-18h214c10 0 18 8 18 18s-8 18-18 18z m0-104h-214c-10 0-18-8-18-18s8-18 18-18h214c10 0 18 8 18 18s-8 18-18 18z m-108 404c-85 0-175-15-212-47-37 32-127 47-212 47-111 0-230-25-230-80v-554c0-5 3-10 7-13s9-5 14-4c126 22 292 22 418 0 1 0 2-1 3-1 0 0 1 1 2 1 0 0 0 0 1 0 126 22 291 22 417 0 1 0 3-1 4-1 4 0 8 2 11 5 4 3 6 8 6 13v554c0 55-119 80-229 80z m-424-599c-68 0-134-5-194-14v533c0 12 68 44 194 44 126 0 194-32 194-44v-533c-60 9-126 14-194 14z m618-14c-120 19-269 19-388 0v533c0 12 68 44 194 44s194-32 194-44v-533h0z" horiz-adv-x="1000" />
<glyph glyph-name="book_shelf_wall" unicode="&#xe86b;" d="m933 34h-61l12 4c9 2 14 12 12 22l-175 581c-1 4-5 8-9 10-4 3-9 3-13 2l-128-39c-10-3-15-13-12-22l22-75c0 0 0 0 0 0h-159v89c0 10-8 18-18 18h-130c-10 0-18-8-18-18v-165h-114c-10 0-18-8-18-18v-389h-27c-10 0-18-8-18-18s8-18 18-18h45 130 2 130 177 352c9 0 17 8 17 18s-8 18-17 18z m-241 579l164-546-94-29-164 547 94 28z m34-579h-127v425l127-425z m-566 0v371h94v-371h-94z m132 554h94v-89-465h-94v554z m130-554v447h141v-447h-141z m71 409c-25 0-46-20-46-45s21-45 46-45 45 20 45 45c0 25-21 45-45 45z m0-54c-6 0-10 4-10 9 0 5 4 10 10 10 5 0 9-5 9-10 0-5-4-9-9-9z" horiz-adv-x="1000" />
<glyph glyph-name="book_writing_reading_read_manual" unicode="&#xe86a;" d="m936 554c-2 1-21 7-62 7-58 0-156-13-305-73 57 54 166 129 335 138 10 1 18 9 17 19s-9 17-19 17c-171-9-284-81-347-138 39 67 126 157 314 200 10 2 16 11 13 21s-11 16-21 13c-234-52-322-176-355-252-33 76-122 200-355 252-10 3-20-3-22-13-2-10 4-19 14-21 188-43 275-133 314-200-64 57-176 129-348 138-10 0-18-7-19-17 0-10 7-18 17-19 170-9 278-84 336-138-150 60-247 73-306 73-40 0-59-6-61-7-8-3-13-10-12-18l48-511c1-10 9-17 18-17 0 0 0 0 0 0l8 0c173 0 320-87 352-107 2-3 4-5 6-6 3-1 6-2 9-2 0 0 0 0 1 0 0 0 1 0 1 0 3 0 6 1 8 2 3 2 5 3 7 6 32 20 179 107 351 107l8 0c1 0 1 0 1 0 9 0 17 7 18 17l47 511c1 8-4 15-11 18z m-835-31c8 2 20 3 36 3 62 0 173-17 350-96v-485c-57 33-187 97-341 99l-45 479z m764-479c-153-2-283-66-340-99v485c177 79 287 96 349 96 16 0 28-1 36-3l-45-479z" horiz-adv-x="1000" />
<glyph glyph-name="bookmark" unicode="&#xe869;" d="m755 750c-10 9-23 15-36 15h-423c-28 0-51-23-51-51l0-779c0-21 12-39 31-47 19-8 42-4 56 11l175 175 176-175c9-10 22-15 36-15 7 0 13 1 19 4 7 2 12 6 17 11 10 9 15 22 15 36l0 779c0 13-6 26-15 36z m-21-815c0-4-1-8-4-11-2-2-3-3-5-4-6-2-13-1-17 4l-188 187c-4 4-8 6-13 6s-9-2-12-6l-188-187c-4-5-11-6-17-4-6 3-10 9-10 15l0 779c0 8 7 15 16 15h423c4 0 8-1 11-4 3-3 4-7 4-11l0-779z" horiz-adv-x="1000" />
<glyph glyph-name="box_shipping_package" unicode="&#xe865;" d="m938 573c0 1 0 2 0 3l-54 161c-2 7-9 12-17 12h-717c-7 0-14-5-17-12l-53-161c0-1 0-2 0-3-1-1-1-2-1-3v-179c0-9 8-17 18-17h23v-463c0-10 8-18 18-18h742c9 0 17 8 17 18v463h24c10 0 18 8 18 17v179c0 1 0 2-1 3z m-775 140h692l41-125h-774l41 125z m699-784h-706v445h192v-111c0-10 8-18 18-18h286c10 0 18 8 18 18v111h192l0-445 0 0z m-228 442v-91h-250v91h250z m246 38h-742-23v143h788v-143c0 0-23 0-23 0z" horiz-adv-x="1000" />
<glyph glyph-name="briefcase_suitcase_luggage_baggage" unicode="&#xe862;" d="m851 575h-688c-52 0-95-43-95-96v-455c0-52 43-95 95-95h688c52 0 95 43 95 95v455c0 53-43 96-95 96z m-111-609h-67v572h67v-572z m-103-2h-267v575h267v-575z m-370 574h67v-572h-67v572z m-163-514v455c0 33 26 60 59 60h68v-574h-68c-33-1-59 26-59 59z m806 0c0-33-26-60-59-60h-75v575h75c33 0 59-27 59-60v-455z m-556 586c9 0 17 8 17 18v17c0 33 27 60 60 60h152c33 0 60-27 60-60v-17c0-10 8-18 18-18s17 8 17 18v17c0 53-42 96-95 96h-152c-52 0-95-43-95-96v-17c0-10 8-18 18-18z" horiz-adv-x="1000" />
<glyph glyph-name="bright_bulb_idea_lamp_light" unicode="&#xe861;" d="m506 760c-146 0-265-117-265-261 0-75 32-157 85-219 0-1 0-1 1-2 1-1 57-72 67-130-5-3-9-8-9-15v-190c0-10 8-18 18-18h34l29-33c4-4 9-7 14-7h53c5 0 10 3 13 7l29 33h35c10 0 18 8 18 18v190c0 7-4 12-8 15 9 58 66 129 66 130 1 1 2 3 3 4 52 62 82 143 82 217 0 144-119 261-265 261z m86-799h-25c-5 0-10-3-13-7l-29-33h-37l-29 33c-3 4-8 7-14 7h-24v155h171l0-155 0 0z m66 340c-1-1-2-3-3-5-13-17-62-84-71-145h-60v196c5-2 10-3 15-3l0 0c22 0 47 12 66 32 32 33 38 78 14 102-10 9-22 13-36 13-23 0-47-11-66-31-4-4-8-9-11-13-3 4-7 9-11 13-19 20-43 31-65 31-14 0-27-4-36-13-25-24-19-69 14-102 18-20 43-32 65-32 5 0 11 1 15 3v-196h-59c-9 63-62 133-72 147-1 1-2 2-3 3-47 56-77 131-77 198 0 124 103 225 229 225 127 0 230-101 230-225 0-67-30-142-78-198z m-133 102c2 10 8 22 18 32 12 13 27 21 40 21 4 0 8-2 11-4 8-8 4-32-15-51-12-13-27-21-40-21-4 0-8 1-11 4-5 5-4 15-3 19z m-41-19c-2-3-6-4-11-4-12 0-28 8-40 21-18 19-23 43-14 51 2 2 6 4 11 4 12 0 28-8 40-21 9-10 16-22 18-32 0-4 2-14-4-19z" horiz-adv-x="1000" />
<glyph glyph-name="browse_list_bullets_check_survey" unicode="&#xe873;" d="m900 43h-459c-10 0-18-8-18-18s8-18 18-18h459c9 0 17 8 17 18s-8 18-17 18z m0 307h-459c-10 0-18-8-18-18s8-18 18-18h459c9 0 17 8 17 18s-8 18-17 18z m-459 271h459c9 0 17 8 17 18s-8 18-17 18h-459c-10 0-18-8-18-18s8-18 18-18z m-132-177h-189c-10 0-18-8-18-17v-189c0-10 8-18 18-18h189c9 0 17 8 17 18v189c0 9-8 17-17 17z m-18-188h-153v153h153v-153z m18-119h-189c-10 0-18-8-18-18v-189c0-10 8-17 18-17h189c9 0 17 7 17 17v189c0 10-8 18-17 18z m-18-189h-153v153h153v-153z m51 821l-157-192-52 58c-7 7-18 7-25 1-8-7-8-18-2-25l66-74c4-3 9-6 14-6 0 0 0 0 0 0 5 1 10 3 14 7l170 208c6 8 5 19-2 25-8 6-19 5-26-2z" horiz-adv-x="1000" />
<glyph glyph-name="browse_list_bullets_thumbs" unicode="&#xe874;" d="m900 43h-459c-10 0-18-8-18-17s8-18 18-18h459c9 0 17 8 17 18s-8 17-17 17z m0 308h-459c-10 0-18-8-18-18s8-18 18-18h459c9 0 17 8 17 18s-8 18-17 18z m-459 271h459c9 0 17 8 17 18s-8 18-17 18h-459c-10 0-18-8-18-18s8-18 18-18z m-132 130h-189c-10 0-18-8-18-18v-188c0-10 8-18 18-18h189c9 0 17 8 17 18v188c0 10-8 18-17 18z m-18-189h-153v154h153v-154z m18-118h-189c-10 0-18-8-18-18v-189c0-10 8-18 18-18h189c9 0 17 8 17 18v189c0 10-8 18-17 18z m-18-189h-153v153h153v-153z m18-118h-189c-10 0-18-8-18-18v-189c0-10 8-18 18-18h189c9 0 17 8 17 18v189c0 10-8 18-17 18z m-18-189h-153v153h153v-153z" horiz-adv-x="1000" />
<glyph glyph-name="browse_list_grid_view" unicode="&#xe876;" d="m296 752h-189c-10 0-18-8-18-18v-188c0-10 8-18 18-18h189c9 0 17 8 17 18v188c0 10-8 18-17 18z m-18-189h-153v154h153v-154h0z m18-118h-189c-10 0-18-8-18-18v-189c0-10 8-18 18-18h189c9 0 17 8 17 18v189c0 10-8 18-17 18z m-18-189h-153v153h153v-153h0z m18-118h-189c-10 0-18-8-18-18v-189c0-10 8-18 18-18h189c9 0 17 8 17 18v189c0 10-8 18-17 18z m-18-189h-153v153h153v-153h0z m332 803h-188c-10 0-18-8-18-18v-188c0-10 8-18 18-18h188c10 0 18 8 18 18v188c0 10-8 18-18 18z m-17-189h-154v154h154v-154z m17-118h-188c-10 0-18-8-18-18v-189c0-10 8-18 18-18h188c10 0 18 8 18 18v189c0 10-8 18-18 18z m-17-189h-154v153h154v-153z m17-118h-188c-10 0-18-8-18-18v-189c0-10 8-18 18-18h188c10 0 18 8 18 18v189c0 10-8 18-18 18z m-17-189h-154v153h154v-153z m332 803h-189c-9 0-17-8-17-18v-188c0-10 8-18 17-18h189c10 0 18 8 18 18v188c0 10-8 18-18 18z m-18-189h-153v154h153v-154z m18-118h-189c-9 0-17-8-17-18v-189c0-10 8-18 17-18h189c10 0 18 8 18 18v189c0 10-8 18-18 18z m-18-189h-153v153h153v-153z m18-118h-189c-9 0-17-8-17-18v-189c0-10 8-18 17-18h189c10 0 18 8 18 18v189c0 10-8 18-18 18z m-18-189h-153v153h153v-153z" horiz-adv-x="1000" />
<glyph glyph-name="bubble_comment_chat_message_add_compose" unicode="&#xe879;" d="m663 454h-138v138c0 10-8 18-18 18s-18-8-18-18v-138h-138c-10 0-18-8-18-18s8-18 18-18h138v-139c0-9 8-17 18-17s18 8 18 17v139h138c10 0 18 8 18 18s-8 18-18 18z m-16 309h-280c-163 0-295-144-295-320 0-151 95-279 228-313v-202c0-7 4-14 11-16 2-1 4-2 7-2 4 0 8 2 12 4l235 208h82c162 0 295 144 295 321s-133 320-295 320z m0-605h-88c-5 0-9-2-12-5l-211-186v178c0 8-6 16-15 17-124 24-213 142-213 281 0 157 116 285 259 285h280c143 0 259-128 259-285s-116-285-259-285z" horiz-adv-x="1000" />
<glyph glyph-name="bubble_comment_chat_message_like" unicode="&#xe87a;" d="m597 602c-29 0-57-11-78-30-21 19-49 30-78 30-61 0-111-49-111-111 0-24 8-47 22-65 0-1 1-2 1-3l139-164c6-7 15-11 25-11h0c10 0 19 4 26 11l139 161c17 20 26 45 26 71 0 62-50 111-111 111z m58-159l-138-158-136 161c-10 13-15 29-15 45 0 42 34 76 75 76 25 0 49-12 64-32 3-4 9-7 14-7l0 0c6 0 11 3 14 7 15 20 39 32 64 32 42 0 75-34 75-76 0-17-6-35-17-48z m-3 320h-280c-163 0-295-144-295-320 0-151 95-279 228-313v-202c0-7 4-14 11-16 2-1 4-2 7-2 4 0 8 2 12 4l235 208h82c162 0 295 144 295 321s-133 320-295 320z m0-605h-88c-5 0-9-2-12-5l-211-186v178c0 8-6 16-15 17-123 24-213 142-213 281 0 157 116 285 259 285h280c143 0 259-128 259-285s-116-285-259-285z" horiz-adv-x="1000" />
<glyph glyph-name="bubble_comment_chat_message_writing" unicode="&#xe87b;" d="m653 763h-281c-162 0-294-144-294-320 0-151 95-279 228-313v-202c0-7 4-14 10-16 3-1 5-2 8-2 4 0 8 2 11 4l236 208h82c162 0 294 144 294 321s-132 320-294 320z m0-605h-89c-4 0-8-2-11-5l-211-186v178c0 8-7 16-15 17-124 24-214 142-214 281 0 157 117 285 259 285h281c142 0 259-128 259-285s-117-285-259-285z m-325 355c-43 0-78-34-78-77s35-78 78-78 77 35 77 78-35 77-77 77z m0-119c-23 0-42 19-42 42 0 23 19 42 42 42 23 0 42-19 42-42 0-23-19-42-42-42z m187 119c-42 0-77-34-77-77s35-78 77-78 78 35 78 78-35 77-78 77z m0-119c-23 0-42 19-42 42 0 23 19 42 42 42s42-19 42-42c0-23-18-42-42-42z m188 119c-43 0-78-34-78-77s35-78 78-78 78 35 78 78-35 77-78 77z m0-119c-23 0-42 19-42 42 0 23 19 42 42 42s42-19 42-42-19-42-42-42z" horiz-adv-x="1000" />
<glyph glyph-name="bubble_comment_chat_message" unicode="&#xe87c;" d="m646 763h-280c-162 0-295-144-295-320 0-151 96-279 229-313v-202c0-7 4-14 10-16 3-1 5-2 8-2 4 0 8 2 11 4l236 208h81c163 0 295 144 295 321s-132 320-295 320z m0-605h-88c-4 0-8-2-12-5l-211-186v178c0 8-6 16-14 17-124 24-214 142-214 281 0 157 116 285 259 285h280c143 0 259-128 259-285s-116-285-259-285z" horiz-adv-x="1000" />
<glyph glyph-name="building_industry_factory" unicode="&#xe801;" d="m361 128h3c9 0 17 8 17 18v55c0 10-8 18-17 18h-3c-10 0-18-8-18-18v-55c0-10 8-18 18-18z m223 91h-3c-10 0-18-8-18-18v-55c0-10 8-18 18-18h3c10 0 18 8 18 18v55c0 10-8 18-18 18z m217-91h2c10 0 18 8 18 18v55c0 10-8 18-18 18h-2c-10 0-18-8-18-18v-55c0-10 8-18 18-18z m120 276c-6 4-13 3-18 0l-194-119v104c0 6-3 12-9 15-5 4-12 3-18 0l-193-119v104c0 6-4 12-9 15-6 4-13 3-18 0l-204-125-13 470c-1 10-8 17-18 18l-104 1c0 0 0 0 0 0-9 0-17-8-18-18l-24-847c-1-5 1-9 5-13 3-3 8-5 12-5h154c0 0 0 0 0 0 0 0 0 0 0 0h219 221 220c10 0 18 8 18 18v486c0 6-3 12-9 15z m-653-161l185 114v-104-333h-184l-1 22v301z m-127 489l68-1 24-790v-21h-116l24 812z m348-489l185 114v-104-333h-185v323z m405-323h-185v323l185 114v-437z" horiz-adv-x="1000" />
<glyph glyph-name="calculator" unicode="&#xe880;" d="m768 764h-527c-39 0-71-32-71-71v-745c0-39 32-71 71-71h527c39 0 71 32 71 71v745c0 39-32 71-71 71z m35-816c0-19-16-35-35-35h-527c-20 0-36 16-36 35v745c0 19 16 35 36 35h527c19 0 35-16 35-35v-745z m-115 676h-365c-16 0-29-13-29-29v-73c0-16 13-29 29-29h365c16 0 29 13 29 29v73c0 16-13 29-29 29z m-7-95h-351v59h351l0-59 0 0z m-322-122c-25 0-46-20-46-45 0-25 21-46 46-46 25 0 46 20 46 46 0 25-21 45-46 45z m0-55c-6 0-10 4-10 10 0 5 4 10 10 10 5 0 10-5 10-10 0-6-5-10-10-10z m146 55c-25 0-46-20-46-45 0-25 21-46 46-46 25 0 46 20 46 46 0 25-21 45-46 45z m0-55c-6 0-10 4-10 10 0 5 4 10 10 10s10-5 10-10c0-6-5-10-10-10z m146 55c-25 0-46-20-46-45 0-25 21-46 46-46 25 0 46 20 46 46-1 25-21 45-46 45z m0-55c-6 0-10 4-10 10 0 5 4 10 10 10s10-5 10-10c0-6-5-10-10-10z m-292-91c-25 0-46-20-46-45 0-25 21-46 46-46 25 0 46 21 46 46 0 25-21 45-46 45z m0-55c-6 0-10 4-10 10 0 5 4 10 10 10 5 0 10-5 10-10 0-6-5-10-10-10z m146 55c-25 0-46-20-46-45 0-25 21-46 46-46 25 0 46 21 46 46 0 25-21 45-46 45z m0-55c-6 0-10 4-10 10 0 5 4 10 10 10s10-5 10-10c0-6-5-10-10-10z m146 55c-25 0-46-20-46-45 0-25 21-46 46-46 25 0 46 21 46 46-1 25-21 45-46 45z m0-55c-6 0-10 4-10 10 0 5 4 10 10 10s10-5 10-10c0-6-5-10-10-10z m-292-91c-25 0-46-20-46-45 0-25 21-46 46-46 25 0 46 21 46 46 0 25-21 45-46 45z m0-55c-6 0-10 4-10 10s4 10 10 10c5 0 10-5 10-10s-5-10-10-10z m146 55c-25 0-46-20-46-45 0-25 21-46 46-46 25 0 46 21 46 46 0 25-21 45-46 45z m0-55c-6 0-10 4-10 10s4 10 10 10 10-5 10-10-5-10-10-10z m146 55c-25 0-46-20-46-45 0-25 21-46 46-46 25 0 46 21 46 46-1 25-21 45-46 45z m0-55c-6 0-10 4-10 10s4 10 10 10 10-5 10-10-5-10-10-10z" horiz-adv-x="1000" />
<glyph glyph-name="calendar_date" unicode="&#xe890;" d="m846 771h-674c-59 0-106-48-106-106v-676c0-58 47-106 106-106h674c58 0 106 48 106 106v676c0 58-48 106-106 106z m70-782c0-39-31-70-70-70h-674c-39 0-71 31-71 70v524h815v-524h0z m0 560h-815v116c0 39 32 70 71 70h674c39 0 70-31 70-70v-116h0z m-497-512c65 0 117 43 117 106v1c0 63-54 93-115 98l103 114c5 6 9 12 9 20 0 10-8 17-19 17h-190c-10 0-19-8-19-18s9-18 19-18h154l-102-115c-5-6-8-11-8-16 0-9 8-17 18-17h12c58 0 98-24 98-67v-1c0-41-34-68-76-68-40 0-69 16-95 45-3 3-8 6-14 6-11 0-20-9-20-20 0-5 4-11 7-14 28-31 68-53 121-53z m183 301c3 0 6 1 9 2l48 16v-295c0-11 9-20 20-20 11 0 19 9 19 20v316c0 11-8 20-19 20h-1c-7 0-14-2-22-5l-57-20c-8-3-14-8-14-17 0-9 8-17 17-17z m-276 345c-25 0-45-20-45-45s20-45 45-45c25 0 46 20 46 45 0 25-21 45-46 45z m0-54c-5 0-9 4-9 9 0 5 4 10 9 10 6 0 10-5 10-10 0-5-4-9-10-9z m367 54c-25 0-45-20-45-45s20-45 45-45c25 0 45 20 45 45 0 25-20 45-45 45z m0-54c-5 0-9 4-9 9 0 5 4 10 9 10 5 0 10-5 10-10 0-5-5-9-10-9z" horiz-adv-x="1000" />
<glyph glyph-name="call_support_phone_help_assistance" unicode="&#xe88e;" d="m866-1c-130 50-218 110-231 141v15c64 10 115 40 118 122 13 11 21 27 21 44v125c0 27-18 49-43 56v43c0 119-96 215-215 215s-215-96-215-215v-43c-25-7-42-29-42-56v-125c0-32 26-59 58-59h27c13-35 31-66 53-91v-31c-13-31-101-91-231-141-18-7-30-25-30-45v-21c0-26 21-47 47-47h666c26 0 47 21 47 47v21c0 20-12 38-30 45z m-212 197c14 19 25 42 34 66h27c1 0 1 1 1 1-5-36-24-57-62-67z m84 250v-125c0-12-10-23-23-23h-15v171h15c13 0 23-10 23-23z m-222 279c92 0 169-71 178-161-26 64-88 99-178 99-89 0-151-36-179-100 9 91 86 162 179 162z m-183-427h-16c-12 0-23 11-23 23v125c0 13 11 23 23 23h16v-171z m527-365c0-6-5-11-11-11h-666c-6 0-12 5-12 11v21c0 5 3 10 8 11 105 41 235 109 253 167 1 1 1 3 1 5v41c0 5-2 10-5 13-26 26-46 63-58 106 0 1-1 2-1 3v187c0 7-4 13-10 16 7 80 62 124 157 124 96 0 150-43 157-125-5-3-9-8-9-15v-186c-1-1-2-3-2-4-12-43-32-80-58-106-1-1-2-3-3-4-9-1-19-2-30-2-6 9-17 15-28 15h-47c-18 0-34-15-34-34s16-34 34-34h47c12 0 23 7 29 17 9 0 18 1 27 1v-13c0-2 0-4 1-5 18-58 147-126 253-166 4-2 7-7 7-12 0 0 0-21 0-21z" horiz-adv-x="1000" />
<glyph glyph-name="cash_money_coins_bills" unicode="&#xe889;" d="m922 358c0 4-1 9-4 13 0 1-32 44-48 66l21 21c7 7 7 18 0 25l-276 276c-6 6-18 6-25 0l-500-500c-7-7-7-19 0-26l167-167v-52c0-78 144-119 279-119 135 0 278 41 278 119v101 22 101 28c0 2 0 5-1 7l101 73c4 3 7 7 8 12z m-665-92v-28-101-20l-129 129 475 475 250-251-120-119c-53 22-126 34-197 34-135 0-279-42-279-119z m522-252c0-40-104-83-243-83-64 0-120 9-162 23-1 0-2 0-3 1-48 16-78 38-78 59v63c4-4 9-7 14-9 27-17 64-30 105-38 18-4 36-6 54-8 23-3 47-4 70-4 94 0 192 20 243 59v-63z m0 123c0-2-1-3-1-5-1-6-4-12-10-17-6-7-14-13-24-18-41-24-117-43-208-43-9 0-17 0-25 0-24 1-47 3-68 7-49 7-89 20-115 36-10 5-19 11-24 18-6 5-9 11-10 17 0 2-1 3-1 5v68c50-37 145-57 236-58 3 0 5 0 7 0 40 0 81 4 118 11 51 10 95 25 125 47l0-68 0 0z m-3 119c-3-6-7-12-14-18-7-6-17-12-28-18-24-12-56-22-94-28-6-2-12-2-18-3-18-3-37-5-56-6-10 0-20 0-30 0-84 0-155 16-198 37-11 6-21 12-28 18-7 6-12 12-14 18-2 3-3 6-3 10 0 39 104 83 243 83 67 0 127-11 170-26 13-5 25-10 35-15 13-7 23-15 29-22 5-7 9-14 9-20 0-4-1-7-3-10z m23 51c-8 10-19 19-32 27l78 78c17-23 27-38 34-47l-80-58z" horiz-adv-x="1000" />
<glyph glyph-name="cash_money_coins" unicode="&#xe887;" d="m655 385c-4 0-8 0-12 0v5 103 23 103 28c0 79-147 121-284 121-138 0-284-42-284-121v-28-103-23-103-23-103-23-48-55c0-78 146-120 284-120 4 0 8 0 13 0v-11c0-78 146-121 283-121 138 0 284 43 284 121v103 23 103 28c0 79-146 121-284 121z m-248-378v65c7-5 15-10 24-15 9-5 19-9 30-14 11-4 23-7 35-11 48-13 104-20 159-20 97 0 197 21 249 60v-65c0-40-107-85-249-85-141 0-248 45-248 85z m200 640c0-3-1-7-3-11-2-6-7-12-14-17-7-7-16-13-28-18-44-22-117-39-203-39-86 0-159 17-203 39-12 5-21 11-28 18-7 5-12 11-14 17-2 4-3 8-3 11 0 40 106 85 248 85 142 0 248-45 248-85z m297-514c0-2-1-3-1-5-2-6-5-12-10-18-6-6-14-12-24-18-42-25-120-44-214-44-32 0-62 2-89 6-12 2-23 4-34 6-13 3-24 6-35 9-22 7-41 15-55 23-10 6-18 12-24 18-5 6-8 12-10 18 0 2-1 3-1 5v71c10-7 21-14 33-20 10-5 21-9 32-13 12-4 23-7 36-10 31-8 64-13 99-16 6 0 12 0 18-1s12 0 18 0c4 0 8 0 12 0 97 0 197 20 249 60v-71z m-782 108c-6 6-9 12-10 18-1 2-1 4-1 5v65c52-39 152-60 248-60 4 0 9 0 13 0 0-1 0-3 0-5v-5-18-5-12-45c-5 0-9 0-13 0-94 0-172 20-214 45-10 5-18 11-23 17z m237 285c96 0 196 21 248 60v-70c0-2 0-4-1-5-1-6-4-12-10-18-5-6-13-12-23-18-42-25-120-44-214-44-94 0-172 19-214 44-10 6-18 12-23 18-6 6-9 12-10 18-1 1-1 3-1 5v70c52-39 152-60 248-60z m0-131c96 0 196 21 248 60v-65c0-2 0-3-1-5 0-1 0-1 0-2-36-2-71-8-103-16-19-5-37-11-53-18-27-12-50-26-63-44-9 0-19 0-28 0-94 0-172 19-214 44-10 6-18 12-23 18-6 6-9 12-10 18-1 2-1 3-1 5v65c52-39 152-60 248-60z m542-141c-3-6-8-12-14-18-8-6-17-12-28-18-44-22-117-39-204-39-4 0-8 0-12 1-6 0-12 0-18 0-6 0-12 1-18 1-11 1-21 2-32 3-11 2-22 4-33 6-12 2-23 5-34 8-22 5-41 12-56 20-3 2-7 4-10 6-7 4-13 8-18 12-2 2-4 4-6 5-3 4-6 9-8 13-1 2-1 3-2 5 0 2 0 4 0 5 0 3 0 5 1 7 1 6 6 13 12 19 8 8 19 15 34 22 26 13 62 24 105 30 13 2 27 4 41 5 2 0 4 1 6 1 6 0 31 1 36 1 4 0 8 1 13 1 141 0 248-45 248-86 0-3-2-7-3-10z m-790-61v10c52-39 152-60 248-60 4 0 8 0 13 1v-11-23-56c-5-1-9-1-13-1-142 0-248 45-248 85v55z" horiz-adv-x="1000" />
<glyph glyph-name="check_ok_done_success" unicode="&#xe885;" d="m814 639c-82 82-192 127-308 127-116 0-225-45-307-127-170-170-170-446 0-615 82-82 191-128 307-128 0 0 0 0 0 0 116 0 226 46 308 128 169 169 169 445 0 615z m-25-590c-76-76-176-117-283-117h0c-107 0-207 41-282 117-156 156-156 409 0 565 75 75 175 117 282 117 107 0 207-42 283-117 155-156 156-409 0-565z m-100 412l-255-273-111 120c-7 7-18 7-25 0s-7-17-1-25l125-132c0-1 0-1 0-1 0 0 0 0 0 0 1-1 3-2 4-3 1 0 1 0 2-1 2-1 4-1 6-1 3 0 5 0 7 1 1 1 1 1 2 1 1 1 3 2 4 3 0 0 0 0 0 0s0 0 0 1l268 286c7 7 6 18-1 25-7 6-18 6-25-1z" horiz-adv-x="1000" />
<glyph glyph-name="checkbox_checked_yes_success" unicode="&#xe884;" d="m927 764h-841c-10 0-18-8-18-18v-841c0-9 8-17 18-17h841c10 0 18 8 18 17v841c0 10-8 18-18 18z m-18-841h-805v806h805c0 0 0-806 0-806z m-492 200c0 0 0-1 1-1 0 0 0 0 0 0 1-1 2-2 3-2 1-1 2-1 2-2 3 0 5-1 7-1s5 1 7 1c0 1 1 1 2 2 1 0 2 1 3 2 0 0 0 0 1 0 0 0 0 1 0 1l328 350c6 7 6 18-1 25-7 7-19 6-25-1l-315-336-139 149c-7 7-18 7-25 1-7-7-8-19-1-26l152-162z" horiz-adv-x="1000" />
<glyph glyph-name="checkbox_x_checked_no" unicode="&#xe883;" d="m927 764h-841c-10 0-18-8-18-18v-841c0-9 8-17 18-17h841c10 0 18 8 18 17v841c0 10-8 18-18 18z m-18-841h-805v806h805c0 0 0-806 0-806z m-623 182c3-3 8-5 12-5s9 2 13 5l195 196 196-196c3-3 8-5 12-5s9 2 13 5c7 7 7 19 0 26l-196 195 196 195c7 7 7 19 0 26s-18 7-25 0l-196-196-195 196c-7 7-19 7-25 0-7-7-7-19 0-26l195-195-195-195c-7-7-7-19 0-26z" horiz-adv-x="1000" />
<glyph glyph-name="clipboard_inventory_box_archive" unicode="&#xe882;" d="m951 547c0 1-1 2-1 3 0 2-1 3-2 4 0 0 0 1-1 2l-160 192c-4 4-9 6-14 6h-529c-6 0-11-2-14-6l-160-192c-1-1-1-2-1-2-1-1-2-2-2-4-1-1-1-2-1-3 0-1 0-2 0-3v-579c0-48 38-87 86-87h713c47 0 86 39 86 87v579c0 1 0 2 0 3z m-599-401h-251v179h233v-60c0-44 36-80 80-80h189c44 0 80 36 80 80v60h232v-179h-250c-10 0-18-8-18-17v-79c0-24-20-44-44-44h-189c-24 0-44 20-44 44v79c0 9-8 17-18 17z m62 240h189c44 0 80 36 80 80v60h232v-165h-250c-10 0-18-8-18-18v-78c0-25-20-45-44-45h-189c-24 0-44 20-44 45v78c0 10-8 18-18 18h-251v165h233v-60c0-44 36-80 80-80z m-162 333h513l130-157h-230c-10 0-18-8-18-18v-78c0-24-20-44-44-44h-189c-24 0-44 20-44 44v78c0 10-8 18-18 18h-230l130 157z m613-805h-713c-28 0-51 23-51 51v146h233v-61c0-44 36-80 80-80h189c44 0 80 36 80 80v61h232v-146c0-28-22-51-50-51z" horiz-adv-x="1000" />
<glyph glyph-name="clipboard_inventory_box_export_open" unicode="&#xe881;" d="m952 261c0 1 0 2 0 4-1 1-1 2-2 3 0 1-1 1-1 2l-160 192c-4 4-9 6-14 6h-185c-10 0-18-8-18-17s8-18 18-18h177l130-157h-231c-9 0-17-8-17-17v-79c0-24-20-44-45-44h-188c-24 0-44 20-44 44v79c0 9-8 17-18 17h-231l131 157h177c9 0 17 8 17 18s-8 17-17 17h-185c-6 0-11-2-14-6l-160-192c-1-1-1-1-2-2 0-1-1-2-1-3-1-2-1-3-1-4 0-1-1-2-1-2v-294c0-48 39-87 87-87h712c48 0 87 39 87 87v294c0 0 0 1-1 2z m-35-296c0-28-23-51-51-51h-712c-28 0-51 23-51 51v276h233v-61c0-44 36-79 80-79h188c44 0 80 35 80 79v61h233v-276z m-517 633l92 93v-451c0-9 8-17 18-17s18 8 18 17v451l93-93c3-3 8-5 12-5s9 2 13 5c7 7 7 19 0 26l-123 123c-2 1-4 3-6 4-4 2-9 2-14 0-2-1-4-3-5-4l-124-123c-7-7-7-19 0-26s19-7 26 0z" horiz-adv-x="1000" />
<glyph glyph-name="clipboard_inventory_box_import_download" unicode="&#xe891;" d="m954 261c0 1 0 2-1 4 0 1-1 2-1 3-1 1-1 1-1 2l-161 192c-3 4-8 7-13 7h-186c-9 0-17-8-17-18s8-18 17-18h177l131-157h-231c-10 0-18-8-18-17v-79c0-24-20-44-44-44h-188c-25 0-44 20-44 44v79c0 9-8 17-18 17h-231l131 157h176c10 0 18 8 18 18s-8 18-18 18h-185c-5 0-10-3-13-7l-161-192c0-1 0-1-1-2-1-1-1-2-2-3 0-2 0-3 0-4 0-1-1-2-1-2v-294c0-48 39-87 87-87h712c48 0 87 39 87 87v294c0 0-1 1-1 2z m-35-296c0-28-23-51-51-51h-712c-28 0-51 23-51 51v276h233v-61c0-44 36-79 80-79h188c44 0 80 35 80 79v61h233v-276z m-518 411c-7 7-18 7-25 0s-7-18 0-25l123-123c2-2 4-3 6-4 2-1 5-1 7-1s5 0 7 1c2 1 4 2 6 4l123 123c7 7 7 18 0 25s-19 7-26 0l-92-92v450c0 10-8 18-18 18s-18-8-18-18v-450l-93 92z" horiz-adv-x="1000" />
<glyph glyph-name="clipboard_inventory_box" unicode="&#xe892;" d="m944 261c0 1 0 2-1 4 0 1-1 2-1 3-1 1-1 1-2 2l-160 192c-3 4-8 6-14 6h-529c-5 0-10-2-14-6l-160-192c0-1-1-1-1-2-1-1-1-2-2-3 0-2 0-3-1-4 0-1 0-2 0-2v-294c0-48 39-87 86-87h713c48 0 86 39 86 87v294c1 0 0 1 0 2z m-699 172h513l130-157h-230c-10 0-18-8-18-17v-79c0-24-20-44-44-44h-188c-25 0-45 20-45 44v79c0 9-8 17-18 17h-230l130 157z m664-468c0-28-23-51-51-51h-713c-28 0-50 23-50 51v276h233v-61c0-44 35-79 80-79h188c44 0 80 35 80 79v61h233v-276z" horiz-adv-x="1000" />
<glyph glyph-name="closed_shop_store" unicode="&#xe893;" d="m948 136l-97 364c-1 5-4 9-9 11-4 2-9 3-13 2l-138-37-250 190c5 13 6 28 2 41-7 29-34 49-63 49-6 0-12-1-17-2-17-5-32-15-41-31-8-15-11-33-6-50 4-14 12-26 22-34l-122-290-137-37c-10-2-16-12-13-22l97-364c2-8 10-13 18-13 1 0 3 0 4 0l750 201c10 3 16 12 13 22z m-595 569c4 7 11 12 19 15 2 0 5 1 8 1 13 0 25-10 29-23 2-8 1-16-3-23-4-7-10-11-18-14l-1 1 0-1c-16-4-33 6-37 21-2 8-1 16 3 23z m18-80c3 0 6-1 9-1 5 0 11 1 17 3 8 2 16 6 22 11l229-174-388-103 111 264z m-178-672l-88 329 716 192 88-330-716-191z m97 184c0 0-3 0-3 0-4-1-7-4-9-7-5-9-11-13-20-16-17-4-34 7-39 25-2 9-1 18 3 25 4 7 10 12 18 14 9 3 16 2 26-3 2-1 4-1 6-1 1 0 3 0 4 0 3 1 7 4 9 7 2 4 2 8 1 11-1 5-4 8-8 10-16 7-29 8-45 4-16-4-29-15-37-29-8-14-10-30-5-46 7-28 30-46 58-46 5 0 10 0 16 2 16 4 28 13 37 28 3 3 4 7 2 11-1 7-7 11-14 11z m99 14c-1 0-3-1-4-1l-43-11-20 75c-1 6-7 11-14 11-1 0-3-1-4-1-7-2-12-10-10-18l24-88c1-6 7-11 14-11 1 0 3 0 4 0l56 16c8 2 12 10 10 17-1 6-7 11-13 11z m44 109c-16-5-30-15-38-30-7-14-9-30-5-46 8-28 31-46 58-46 6 0 11 1 17 2 16 5 30 15 38 30 7 14 9 30 5 46-9 33-42 52-75 44z m25-92c-3-1-6-1-8-1-15 0-27 10-31 25-5 18 4 35 21 40 3 1 6 1 9 1 14 0 26-10 30-25 5-18-4-36-21-40z m111 77c-2 0-4 0-6 0-3 0-5 0-7 0-15 0-15 3-16 6-1 1 0 3 1 5 2 2 5 4 9 5 8 2 14 2 23-1 1-1 3-1 5-1 0 0 3 0 3 0 8 2 13 10 11 18-1 4-5 8-9 10-13 5-25 5-40 2-11-3-20-10-26-18-6-8-8-19-5-29 6-24 26-27 43-27 2 0 4 0 6 1 3 0 5 0 7 0 14 0 14-3 15-6 1-2 0-4-1-6-2-2-6-4-10-6-10-2-19-1-28 3-2 1-4 2-6 2-1 0-3-1-4-1-4-1-7-3-9-7-2-3-2-7-1-11 1-4 4-8 8-9 10-4 19-6 28-6 6 0 13 0 19 2 25 7 38 26 32 48-6 23-27 26-42 26z m137-10c-1 0-3 0-4 0l-48-13-4 17 40 11c4 1 7 3 9 7 2 3 2 7 1 10-1 7-7 11-13 11-1 0-3 0-4 0l-41-11-4 16 47 13c4 1 7 3 9 6 1 4 2 7 1 11-2 6-7 11-14 11-1 0-3-1-3-1l-62-16c-7-2-12-11-10-18l23-88c2-6 8-11 15-11 0 0 3 1 3 1l62 16c8 2 12 10 10 18-1 6-7 10-13 10z m40 106l-28-7c-8-2-13-10-11-18l24-88c1-6 7-11 14-11 1 0 3 1 4 1l28 8c17 4 31 14 40 28 8 14 10 30 6 46-9 33-42 51-77 41z m45-73c-4-7-11-12-21-15l-14-4-17 61 15 4c19 5 35-4 40-22 2-9 1-17-3-24z" horiz-adv-x="1000" />
<glyph glyph-name="cloud_files_upload_backup" unicode="&#xe895;" d="m508 458c-2 2-4 3-6 4-4 2-9 2-14 0-2-1-4-2-5-4l-108-107c-7-7-7-19 0-26s18-7 25 0l77 77v-216c0-10 8-18 18-18s18 8 18 18v216l77-77c4-3 8-5 13-5s9 2 12 5c7 7 7 19 0 26l-107 107z m276-9c-5 1-10 2-16 3 0 0-2 0-2 0-7 1-13 1-20 1 0 0 0 0 0 0-3 0-4 0-6 0-28 71-96 117-173 117-6 0-14 0-21-1-42 52-103 81-169 81-121 0-219-98-219-219 0-1 0-3 0-4-56-39-90-102-90-170 0-114 93-207 207-207 0 0 467 0 470 0 112 0 202 90 202 201 0 97-69 180-163 198z m-39-364c-4 0-470 0-470 0-94 0-171 77-171 172 0 59 31 114 82 146 5 3 9 9 8 16l0 3c0 3 0 6 0 9 0 101 82 183 183 183 58 0 111-27 146-74 4-5 10-8 17-7 9 1 19 2 27 2 65 0 124-44 143-106 3-8 11-13 19-12 5 0 11 0 15 0 1 0 2 0 3 0 5 0 10 0 15-1 1 0 2 0 3 0 4 0 8-1 12-2 78-15 134-83 134-163 0-91-74-166-166-166z" horiz-adv-x="1000" />
<glyph glyph-name="cloud_sync_files_restore" unicode="&#xe896;" d="m788 449c-5 1-10 2-16 3 0 0-2 0-2 0-6 1-13 1-19 1 0 0-1 0-1 0-2 0-4 0-6 0-28 71-95 117-172 117-7 0-15 0-22-1-42 52-103 81-169 81-121 0-219-98-219-219 0-1 0-3 0-4-56-39-89-102-89-170 0-114 92-207 206-207 0 0 467 0 470 0 112 0 202 90 202 201 0 97-68 180-163 198z m-38-364c-5 0-470 0-470 0-95 0-172 77-172 172 0 59 31 114 82 146 6 3 9 9 8 16l0 3c0 3 0 6 0 9 0 101 82 183 183 183 58 0 112-27 147-74 3-5 10-8 16-7 9 1 20 2 28 2 65 0 123-44 142-106 3-8 11-13 19-12 6 0 11 0 15 0 1 0 2 0 3 0 5 0 10 0 16-1 0 0 2 0 2 0 4 0 8-1 12-2 78-15 135-83 135-163 0-91-75-166-166-166z m-103 335c-9 4-19-1-23-10l-10-26c-26 41-73 67-123 67-65 0-123-44-141-106-3-9 2-19 12-22 9-3 19 3 22 12 14 47 58 80 107 80 34 0 65-15 86-41l-18 7c-9 4-19-1-23-10-4-9 1-19 10-23l62-24c3-1 5-2 8-2 0 0 0 0 0 0 0 0 0 0 0 0 7 0 14 4 17 12l25 63c3 9-1 20-11 23z m-25-136c-10 3-20-2-23-12-13-47-57-80-107-80-34 0-65 16-86 41l18-7c9-4 20 1 23 10 4 9-1 20-10 23l-60 24c-1 0-1 0-2 0l-1 1c-1 0-1 0-1 0-2 1-3 1-5 1-1 0-3 0-4 0 0-1-1 0-1-1 0 0-1 0-1 0-5-1-9-5-11-10l-25-64c-4-9 1-19 10-23 2-1 4-1 7-1 7 0 13 4 16 11l10 26c27-41 73-67 123-67 65 0 124 44 142 106 3 10-3 20-12 22z" horiz-adv-x="1000" />
<glyph glyph-name="cloud_weather_cloudy" unicode="&#xe897;" d="m767 431c-2 0-5 0-7 0-28 72-97 120-176 120-8 0-18-1-27-2-45 36-94 53-149 53-121 0-219-83-243-203-51-35-84-91-84-144 0-98 81-177 181-177h505c103 0 190 81 190 177 0 95-87 176-190 176z m0-318h-505c-80 0-145 64-145 142 0 44 29 90 74 118l7 4 1 8c18 107 104 182 209 182 50 0 92-16 132-50l6-5 7 1c10 1 22 2 31 2 67 0 127-44 147-108l4-14 14 2c6 0 12 1 18 1 84 0 154-65 154-141 0-77-70-142-154-142z" horiz-adv-x="1000" />
<glyph glyph-name="comment_chat_message" unicode="&#xe89c;" d="m731 444c0 136-102 247-227 247h-212c-126 0-228-111-228-247 0-114 72-213 173-240v-149c0-7 4-14 10-17 3-1 5-1 8-1 4 0 8 1 12 4l177 156h60c125 0 227 111 227 247z m-294-211c-4 0-9-2-12-5l-152-134v125c0 8-6 15-15 17-91 18-158 105-158 208 0 116 86 211 192 211h212c105 0 191-95 191-211s-86-211-191-211c0 0-67 0-67 0z m346 193c-10 0-18-8-18-18s8-17 18-17c72 0 131-65 131-145 0-78-56-142-127-144-10-1-17-9-17-18v-58l-67 70c-3 4-8 6-13 6h-57c-42 0-80 21-105 57-5 8-16 11-25 5-8-6-10-17-4-25 31-46 81-73 134-73h49l93-97c3-3 8-5 13-5 2 0 4 0 6 1 7 3 11 9 11 17v85c82 12 144 87 144 179 0 99-74 180-166 180z m-209 72c0 10-8 18-18 18h-318c-10 0-18-8-18-18s8-18 18-18h318c10 0 18 8 18 18z m-180-96h-156c-10 0-18-8-18-17s8-18 18-18h156c10 0 18 8 18 18s-8 17-18 17z" horiz-adv-x="1000" />
<glyph glyph-name="comment_quote_reply" unicode="&#xe89e;" d="m909 364h-134v18c0 101 38 115 75 115 20 0 37 17 37 37v105c0 20-17 37-37 37-91 0-164-30-218-87-54-57-81-154-81-288v-264c0-21 17-37 38-37h320c20 0 37 16 37 37v290c0 20-17 37-37 37z m1-327c0-1 0-2-1-2h-320c-1 0-2 1-2 2v264c0 124 24 213 71 264 47 50 111 75 192 75 1 0 2 0 2-1v-105c0-1-1-1-2-1-73 0-110-51-110-151v-36c0-9 8-17 18-17h151c1 0 1-1 1-2 0 0 0-290 0-290z m-480 327h-134v18c0 101 38 115 75 115 20 0 37 17 37 37v105c0 20-17 37-37 37-92 0-165-30-219-87-53-57-79-154-79-288v-264c0-21 16-37 37-37h320c20 0 37 16 37 37v290c0 20-17 37-37 37z m2-327c0-1-1-2-2-2h-320c-1 0-2 1-2 2v264c0 124 24 213 70 264 47 50 112 75 193 75 1 0 2 0 2-1v-105c0-1-1-1-2-1-73 0-110-51-110-151v-36c0-9 8-17 18-17h151c1 0 2-1 2-2l0-290 0 0z" horiz-adv-x="1000" />
<glyph glyph-name="compose_write_pencil_new" unicode="&#xe89f;" d="m933 607l-122 122c-16 16-43 16-59 0l-455-455c-4-4-7-9-9-14l-83-205c-6-15-3-33 9-45 8-8 19-12 30-12 0 0 0 0 0 0 5 0 10 1 15 3l205 83c6 2 10 5 14 9l453 453 2 2c8 8 13 18 13 30 0 10-5 21-13 29z m-619-375l122-122-143-57-36 36 57 143z m594 341l-442-443-32 32c1 0 1 0 1 0l394 394c7 7 7 18 0 25s-18 7-25 0l-394-394c0 0 0 0 0-1l-76 76 443 442c2 2 4 2 5 2 1 0 3 0 4-2l122-122c2-1 2-3 2-4s0-4-2-5z m-97-219c-10 0-18-8-18-18v-408c0-4-3-8-8-8h-676c-4 0-7 4-7 8v667c0 4 3 8 7 8h447c9 0 17 8 17 17s-8 18-17 18h-447c-23 0-43-19-43-43v-667c0-24 20-43 43-43h676c24 0 43 19 43 43v408c0 10-8 18-17 18z" horiz-adv-x="1000" />
<glyph glyph-name="computer_desktop_screen" unicode="&#xe802;" d="m520 369h-410c-28 0-52-24-52-52v-265c0-28 24-52 52-52h410c28 0 51 24 51 52v265c0 28-23 52-51 52z m16-317c0-9-8-16-16-16h-410c-9 0-16 7-16 16v265c0 9 7 16 16 16h410c8 0 16-7 16-16v-265z m167 223c10 0 18-8 18-18s-8-17-18-17-17 8-17 17 8 18 17 18z m59 0c10 0 18-8 18-18s-8-17-18-17-17 8-17 17 8 18 17 18z m-329-357h-17l-8 53c-2 10-11 16-21 15-10-2-16-11-15-21l8-47h-130l7 47c2 10-5 19-14 21-10 1-19-5-21-15l-8-53h-19c-10 0-18-8-18-18s8-18 18-18h45 150 43c10 0 18 8 18 18s-8 18-18 18z m497 839h-285c-10 0-18-8-18-17v-840c0-10 8-18 18-18h285c10 0 18 8 18 18v840c0 9-8 17-18 17z m-18-839h-249v804h249v-804z m-214 689h179c10 0 18 8 18 18s-8 18-18 18h-179c-10 0-18-8-18-18s8-18 18-18z m0-69h179c10 0 18 8 18 18s-8 18-18 18h-179c-10 0-18-8-18-18 0-10 8-18 18-18z m0-69h179c10 0 18 8 18 18s-8 18-18 18h-179c-10 0-18-8-18-18s8-18 18-18z m0-69h179c10 0 18 8 18 18s-8 18-18 18h-179c-10 0-18-8-18-18s8-18 18-18z" horiz-adv-x="1000" />
<glyph glyph-name="credit_card" unicode="&#xe8a5;" d="m556 163h237c10 0 18 8 18 18s-8 18-18 18h-237c-10 0-18-8-18-18s8-18 18-18z m331 482h-752c-37 0-66-30-66-66v-39-175-271c0-36 29-66 66-66h752c37 0 67 30 67 66v271 175 39c0 36-30 66-67 66z m-783-141h814v-103h-814v103z m814-410c0-17-14-30-31-30h-752c-17 0-31 13-31 30v271h814v-271z m-814 446v39c0 17 14 30 31 30h752c17 0 31-13 31-30v-39h-814z" horiz-adv-x="1000" />
<glyph glyph-name="dashboard_full_fuel_gauge" unicode="&#xe8a2;" d="m505 697c-241 0-438-196-438-438 0-102 36-201 102-280 3-4 8-6 13-6h646c5 0 10 2 14 6 65 79 101 178 101 280 0 242-196 438-438 438z m315-688h-629c-57 71-88 159-88 250 0 222 180 403 402 403s402-181 402-403c0-91-31-179-87-250z m-123 392c-11 0-22-3-31-10-1-1-1-1-2-2l-202-167c-21-14-34-38-34-63 0-43 35-77 77-77 21 0 40 8 55 23 4 4 6 7 9 12l168 201c0 1 1 2 1 2 6 9 10 19 10 30 0 28-23 51-51 51z m12-60c-1 0-1-1-1-1l-167-201c0-1-1-1-1-2-2-2-3-5-6-7-7-8-18-12-29-12-22 0-41 18-41 41 0 13 7 26 19 35l202 167c1 0 2 0 2 1 2 2 5 4 10 4 8 0 15-7 15-16 0-4-2-7-3-9z m-501-69h-32c-10 0-18-8-18-18s8-17 18-17h32c10 0 18 8 18 17s-8 18-18 18z m68 228c-7 7-18 7-25 0s-7-18 0-25l25-25c3-3 8-5 12-5s9 2 13 5c7 7 7 18 0 25l-25 25z m233 42c10 0 18 8 18 18v31c0 10-8 18-18 18s-18-8-18-18v-31c0-10 8-18 18-18z m230-42l-24-25c-7-7-7-18 0-25 3-3 8-5 13-5s9 2 12 5l24 24c7 7 7 19 0 26-7 7-18 7-25 0z m95-228h-34c-10 0-18-8-18-18s8-17 18-17h34c10 0 18 8 18 17s-8 18-18 18z" horiz-adv-x="1000" />
<glyph glyph-name="database_shared_map_storage_nas_network" unicode="&#xe805;" d="m883 172v475c0 27-22 48-48 48h-504v28c0 27-22 48-48 48h-112c-27 0-48-21-48-48v-551c0-26 21-47 48-47h319c0 0 0-1 0-1v-131c-20-7-33-25-33-47 0-28 22-50 50-50 0 0 0 0 0 0 28 0 51 22 51 50 0 22-14 40-33 47v131c0 0 0 1 0 1h310c26 0 48 21 48 47z m-376-241c-8 0-14 7-14 15s6 15 14 15 15-7 15-15-6-15-15-15z m-336 804h112c7 0 12-5 12-12v-64h540c7 0 12-5 12-12v-56h-688v132c0 7 5 12 12 12z m664-575h-664c-7 0-12 6-12 12v383h688v-383c0-6-5-12-12-12z m-706-196h-45c-10 0-18-8-18-17s8-18 18-18h45c10 0 18 8 18 18s-8 17-18 17z m151 0h-63c-10 0-18-8-18-17s8-18 18-18h63c10 0 18 8 18 18s-8 17-18 17z m133 0h-45c-10 0-18-8-18-17s8-18 18-18h45c10 0 18 8 18 18s-8 17-18 17z m230 0h-44c-10 0-18-8-18-17s8-18 18-18h44c10 0 18 8 18 18s-8 17-18 17z m152 0h-63c-10 0-18-8-18-17s8-18 18-18h63c10 0 18 8 18 18s-8 17-18 17z m133 0h-44c-10 0-18-8-18-17s8-18 18-18h44c10 0 18 8 18 18s-8 17-18 17z" horiz-adv-x="1000" />
<glyph glyph-name="delivery_box_shipping" unicode="&#xe8b6;" d="m798 101l-234-66c-18 36-54 61-96 61-5 0-10-1-15-1l-183 660c-3 10-12 15-22 13-9-3-15-13-12-22l24-85h-138c-10 0-18-8-18-18s8-17 18-17h144c1 0 2 0 3 0l151-542c-35-17-59-53-59-95 0-58 48-106 107-106 59 0 106 48 106 106 0 4 0 8 0 12l234 65c9 3 15 13 12 22-3 10-12 15-22 13z m-330-183c-39 0-71 32-71 71s32 71 71 71 71-31 71-71c0-39-32-71-71-71z m427 292l-95 343c-2 4-5 8-9 11-4 2-9 3-13 1l-343-95c-9-2-15-12-12-22l95-342c2-8 9-13 17-13 1 0 3 0 5 0l342 95c5 2 9 5 11 9 2 4 3 9 2 13z m-348-78l-86 309 309 85 86-308-309-86z m113 230c2 0 4-1 6-1 7 0 14 5 17 12l3 7 27-97c2-8 9-13 17-13 1 0 3 1 5 1 9 3 15 12 12 22l-27 97 6-5c8-6 19-5 25 3 6 7 5 19-3 25l-49 38c-4 4-10 5-16 3-5-1-10-5-12-10l-21-59c-4-9 1-19 10-23z m-53-108c2-8 9-13 17-13 2 0 3 0 5 0 9 3 15 13 12 22l-27 97 6-5c8-6 19-4 25 3 6 8 5 19-3 25l-49 39c-4 3-10 4-15 3-6-2-10-6-12-11l-22-58c-3-10 1-20 11-23 2-1 4-1 6-1 7 0 14 4 16 11l3 8 27-97z m-3-32c-9-3-15-13-12-22 2-8 9-13 17-13 1 0 3 0 5 1l162 45c9 3 15 12 12 22s-13 15-22 12l-162-45z m-136-202c17 0 30-14 30-31s-13-30-30-30-30 14-30 30 13 31 30 31z" horiz-adv-x="1000" />
<glyph glyph-name="delivery_van_truck_shipping" unicode="&#xe8b7;" d="m925 249v129c0 105-69 159-72 161-3 2-7 4-11 4h-163v107c0 10-8 18-18 18h-587c-10 0-18-8-18-18v-419c0-10 8-18 18-18h19v-75c0-10 8-18 18-18h57c-2-8-3-16-3-25 0-57 46-104 103-104 57 0 104 47 104 104 0 9-1 17-3 25h303c-2-8-3-16-3-25 0-57 46-104 104-104 57 0 103 47 103 104 0 9-1 17-3 25h50c10 0 18 8 18 18v93c0 9-7 17-16 18z m-36 129v-6h-69v135h15c14-12 54-56 54-129z m-105 129v-135h-105v135h105z m-692 126h551v-108-276h-532-19v384z m176-606c-37 0-68 31-68 68 0 38 31 68 68 68 38 0 68-30 68-68 0-37-30-68-68-68z m505 0c-38 0-68 31-68 68 0 38 30 68 68 68 37 0 67-30 67-68 0-37-30-68-67-68z m132 129h-49c-19 26-49 43-83 43-35 0-65-17-84-43h-337c-19 26-49 43-84 43-34 0-64-17-83-43h-56v57h532c10 0 18 8 18 18v106h123 87v-106c0-9 7-17 16-18v-57h0z m-132-38c12 0 23-10 23-23s-11-23-23-23-24 10-24 23 11 23 24 23z m-505 0c13 0 24-10 24-23s-11-23-24-23-23 10-23 23 10 23 23 23z m451 507c0 0 0 0 0 0 46 0 87-54 87-55 4-4 9-7 14-7 4 0 8 1 11 4 8 5 10 17 4 25-2 2-52 69-116 69 0 0 0 0 0 0-10 0-18-8-18-18 0-10 8-18 18-18z" horiz-adv-x="1000" />
<glyph glyph-name="disc_cd_dvd_drive" unicode="&#xe8b9;" d="m504 765c-241 0-438-196-438-438s197-437 438-437 438 196 438 437-197 438-438 438z m0-840c-222 0-402 181-402 402s180 403 402 403 402-181 402-403-180-402-402-402z m0 572c-93 0-169-76-169-170s76-169 169-169 169 76 169 169-76 170-169 170z m0-303c-74 0-133 60-133 133s59 134 133 134 133-60 133-134-59-133-133-133z m0 187c-29 0-53-24-53-54s24-53 53-53 53 24 53 53-24 54-53 54z m0-71c-10 0-18 8-18 17s8 18 18 18c10 0 18-8 18-18s-8-17-18-17z" horiz-adv-x="1000" />
<glyph glyph-name="disc_floppy_save" unicode="&#xe8ba;" d="m946 601l-160 161c-4 3-8 5-13 5h-78-367-239c-10 0-18-8-18-18v-844c0-10 8-18 18-18h134 577 134c9 0 17 8 17 18v683c0 5-1 10-5 13z m-269 130v-236h-331v236h331z m-436-809v447h541v-447h-541z m675 0h-98v465c0 9-8 17-18 17h-577c-10 0-18-8-18-17v-465h-98v809h203v-254c0-10 8-18 18-18h367c10 0 18 8 18 18v254h53l150-150v-659z m-359 608h52c10 0 18 8 18 18v155c0 10-8 18-18 18h-52c-10 0-18-8-18-18v-155c0-10 8-18 18-18z m18 155h16v-120h-16v120z m120-406h-367c-10 0-18-8-18-18s8-18 18-18h367c10 0 18 8 18 18s-8 18-18 18z m0-108h-367c-10 0-18-8-18-18s8-18 18-18h367c10 0 18 8 18 18s-8 18-18 18z m0-108h-367c-10 0-18-8-18-18s8-17 18-17h367c10 0 18 8 18 17s-8 18-18 18z" horiz-adv-x="1000" />
<glyph glyph-name="download_cloud_files_drive" unicode="&#xe8c0;" d="m580 120l-85-85v387c0 10-8 18-18 18s-18-8-18-18v-387l-85 85c-7 7-18 7-25 0s-7-18 0-25l116-116c1-2 3-3 5-4 3-1 5-2 7-2s5 1 7 2c2 1 4 2 6 4l116 116c7 7 7 18 0 25s-19 7-26 0z m163 413c-28 71-97 118-175 118-8 0-17 0-26-1-45 35-93 52-148 52-119 0-217-82-241-201-51-34-83-90-83-143 0-97 81-176 180-176h116c10 0 18 8 18 18s-8 18-18 18h-116c-80 0-144 63-144 140 0 43 28 89 73 117 4 3 7 7 8 12 18 106 103 180 207 180 49 0 91-16 131-49 3-3 8-5 13-4 10 1 21 2 30 2 66 0 126-44 145-107 3-8 11-13 19-12 6 0 12 1 18 1 83 0 152-64 152-140 0-76-69-140-152-140h-162c-9 0-17-8-17-18s8-18 17-18h162c102 0 188 81 188 176 0 97-91 179-195 175z" horiz-adv-x="1000" />
<glyph glyph-name="download_import" unicode="&#xe8d0;" d="m393 379c-7 7-18 7-25 0s-7-18 0-25l123-123c2-2 4-3 6-4 2-1 5-2 7-2s5 1 7 2c2 1 4 2 6 4l123 123c7 7 7 18 0 25s-19 7-26 0l-92-93v469c0 10-8 18-18 18s-18-8-18-18v-469l-93 93z m408 148h-192c-10 0-18-8-18-18s8-17 18-17h174v-559h-558v559h174c10 0 18 8 18 17s-8 18-18 18h-192c-10 0-18-8-18-18v-594c0-9 8-17 18-17h594c10 0 18 8 18 17v594c0 10-8 18-18 18z" horiz-adv-x="1000" />
<glyph glyph-name="drink_cocktail_disco_going_out_shake" unicode="&#xe806;" d="m869 590c5 5 6 13 3 19s-9 10-16 10h-195l83 117c5 8 3 19-5 25-8 6-19 4-25-4l-97-138h-460c-7 0-14-4-17-10-2-6-1-14 3-19l341-406v-270h-198c-10 0-18-8-18-18s8-18 18-18h431c10 0 18 8 18 18s-8 18-18 18h-198v269l350 407z m-277-6l-37-53c-9 4-18 6-28 6-28 0-56-16-73-41-13-19-18-41-16-63 3-16 9-29 19-40l-21-30c-6-8-4-19 4-25 3-2 7-3 10-3 6 0 11 2 15 7l21 30c8-2 16-4 25-4 28 0 56 16 73 41 13 19 18 41 15 63-2 14-7 27-16 38l53 74h181l-315-366-307 366h397z m-102-174c-9 6-15 16-16 28-2 13 2 26 9 38 11 16 27 25 44 25 7 0 14-2 20-6 9-6 15-16 17-28 2-13-2-26-10-38-15-23-44-32-64-19z" horiz-adv-x="1000" />
<glyph glyph-name="eating_burger_hamburger_fast_food" unicode="&#xe807;" d="m133 349h764c10 0 18 8 18 17 0 197-179 358-400 358s-400-160-400-358c0-9 8-17 18-17z m382 339c194 0 353-135 364-304h-728c11 169 170 304 364 304z m386-509h-772c-29 0-53-24-53-53v-45c0-24 17-44 39-51v-12c0-63 51-114 114-114h572c63 0 114 51 114 114v12c23 7 39 27 39 51v45c0 29-24 53-53 53z m-21-161c0-43-35-78-79-78h-572c-43 0-78 35-78 78v10h729l0-10 0 0z m38 63c0-9-7-17-17-17h-4-764-4c-10 0-17 8-17 17v45c0 9 7 17 17 17h772c10 0 17-8 17-17 0 0 0-45 0-45z m-760 145c7-7 18-7 25 0l56 54 56-54c7-7 18-7 25 0l55 53 57-54c6-7 17-7 24 0l57 54 56-54c7-7 18-7 25 0l54 52 56-54c7-7 18-7 25 0l56 54 56-54c4-4 8-5 13-5s9 2 12 5l67 64c7 7 7 18 0 25-7 7-18 8-25 1l-54-53-57 55c-7 6-18 6-24 0l-57-55-56 55c-7 6-18 6-25 0l-54-53-56 55c-7 6-18 6-25 0l-56-55-56 55c-4 3-9 4-14 4-5 0-9-3-12-6l-54-52-56 55c-7 6-18 6-25 0l-56-55-57 55c-7 6-18 6-25-1-7-7-6-18 1-25l68-66z m271 393h-9c-10 0-18-8-18-18s8-17 18-17h9c10 0 18 8 18 17s-8 18-18 18z m97-61h-10c-10 0-18-8-18-18s8-18 18-18h10c10 0 18 8 18 18s-8 18-18 18z m99 61h-10c-10 0-18-8-18-18s8-17 18-17h10c9 0 17 8 17 17s-8 18-17 18z" horiz-adv-x="1000" />
<glyph glyph-name="education_study_school_learning_smart" unicode="&#xe8c9;" d="m165 168v91c0 10-8 18-18 18s-18-8-18-18v-91c-17-3-30-18-31-36l-9-54 0-3c0-21 17-39 38-39h40c22 0 39 18 39 39l-10 57c-1 18-14 33-31 36z m2-96h-40c-1 0-2 1-3 2l10 53 0 4c0 1 1 2 3 2h21c1 0 2-1 2-2l10-57c0-1-1-2-3-2z m775 274l-112 265c-3 7-9 11-17 11h-587c-7 0-13-3-16-9l-140-269c-3-6-3-12 1-18 3-5 9-8 15-8h227l-45-182c0-1 0-2 0-4 0-70 124-94 240-94s239 24 239 94c0 2 0 3 0 4l-45 182h225c0 0 0 0 0 0 10 0 18 8 18 18 0 3-1 7-3 10z m-231-216c-3-28-78-57-203-57-125 0-201 29-204 57l46 188h315l46-188z m-596 223l58 111h322c10 0 18 8 18 18s-8 18-18 18h-303l45 87h565l98-234h-785z" horiz-adv-x="1000" />
<glyph glyph-name="fail_alert_error_unavailable" unicode="&#xe8c7;" d="m932 121l-207 206 205 206c8 7 12 17 12 28 0 11-4 21-12 28l-157 158c-15 14-42 14-57 0l-205-206-206 206c-14 14-41 14-56 0l-160-160c-15-16-15-41 0-57l206-205-205-204c-7-8-11-18-11-29 0-10 4-20 11-28l158-157c15-15 41-15 56 0l205 204 206-207c8-7 18-12 28-12 11 0 21 5 29 12l160 160c7 8 11 18 11 28 0 11-4 21-11 29z m-25-32l-160-160c-2-2-4-3-7 0l-219 219c-4 4-8 5-13 5s-8-1-12-5l-217-217c-2-2-4-2-7 0l-157 158c-1 1-1 2-1 3 0 1 0 3 1 4l217 217c7 6 7 17 0 24l-218 218c-2 2-2 5 0 7l160 160c1 2 5 1 7 0l218-218c6-7 17-7 24 0l218 218c2 2 6 1 7 0l158-157c1-1 1-3 1-4 0-1 0-2-1-3l-218-218c-4-4-5-8-5-13s1-9 5-12l219-219c1-1 1-2 1-4 0-1 0-2-1-3z" horiz-adv-x="1000" />
<glyph glyph-name="fail_dangerous_error_unavailable" unicode="&#xe8c5;" d="m829 640c-83 83-193 128-310 128-118 0-228-45-311-128s-128-193-128-310c0-118 46-228 128-311s193-128 311-128c0 0 0 0 0 0 117 0 227 46 310 128 83 83 128 193 128 311 0 117-45 227-128 310z m-595-25c76 76 177 118 285 118 101 0 197-38 271-106l-568-569c-69 74-106 170-106 272 0 107 42 209 118 285z m570-570c-76-76-178-118-285-118h0c-102 0-198 37-272 106l569 568c68-74 105-170 105-271 0-108-41-209-117-285z" horiz-adv-x="1000" />
<glyph glyph-name="file_document_attachment_paperclip" unicode="&#xe8c3;" d="m804 544l-108 106c-8 8-19 13-31 13h0-154v38c0 42-34 77-77 77-20 0-40-8-54-23s-23-34-23-54v-38h-119c-24 0-44-20-44-44v-689c0-24 20-43 44-43h535c24 0 44 19 44 43v583c0 11-5 23-13 31z m-38-13h-83l0 82 83-82z m-373 170c0 11 4 21 12 29 8 8 18 12 29 12 23 0 42-18 42-41v-38h-83c0 0 0 38 0 38z m380-779h-535c-4 0-8 4-8 8v689c0 4 4 8 8 8h238l0-247c0-34-28-61-62-61 0 0 0 0 0 0-16 0-31 6-43 18-11 11-18 27-18 43l0 166c0 10-8 18-18 18-10 0-18-8-18-18l0-166c0-26 11-50 29-69 18-18 42-28 68-28 0 0 0 0 0 0 54 0 97 44 97 97l0 247h137l0-114c0-10 8-18 18-18h115v-565c0-4-3-8-8-8z" horiz-adv-x="1000" />
<glyph glyph-name="file_document_cv_curriculum_vitae_profile_id" unicode="&#xe8d1;" d="m851 641l-124 122c-9 9-21 14-33 14l0 0h-493c-26 0-48-21-48-47v-795c0-26 22-47 48-47h617c26 0 48 21 48 47v672c0 13-6 25-15 34z m-34-16h-105l-1 104 106-104z m1-701h-617c-7 0-12 5-12 11v795c0 6 5 11 12 11h475l0-134c0-10 8-18 18-18h136v-654c0-6-6-11-12-11z m-120 146h-377c-10 0-18-8-18-18s8-18 18-18h377c10 0 18 8 18 18s-8 18-18 18z m3 192c-99 38-120 55-124 59v8c11 14 20 30 26 49 10 10 16 23 16 36 0 9-3 18-7 26v37c0 59-38 93-100 93-61 0-99-35-99-93v-37c-5-8-7-17-7-26 0-13 5-26 15-35 6-20 15-36 26-50v-7c-5-6-28-23-124-60-12-5-20-17-20-30v-48c0-17 14-32 32-32h355c17 0 31 15 31 32v48c0 13-8 25-20 30z m-16-74h-346v42c124 48 139 67 143 82 1 1 1 3 1 5v19c0 5-2 9-5 13-11 11-19 26-24 45-1 4-4 7-7 9-4 3-6 7-6 11 0 4 2 7 3 9 3 3 4 7 4 11v43c0 38 22 58 64 58 43 0 64-19 64-58v-43c0-4 1-8 4-11 1-2 3-5 3-9 0-4-2-8-6-11-3-2-5-5-7-9-5-19-13-34-24-45-3-4-5-8-5-13v-19c0-2 0-4 1-5 4-15 20-34 143-82v-42h0z" horiz-adv-x="1000" />
</font>
</defs>
</svg>
